<?xml version="1.0" encoding="utf-8"?>
<!-- Generator: Adobe Illustrator 27.5.0, SVG Export Plug-In . SVG Version: 6.00 Build 0)  -->
<svg version="1.1" xmlns="http://www.w3.org/2000/svg" xmlns:xlink="http://www.w3.org/1999/xlink" x="0px" y="0px"
	 viewBox="0 0 750 500" style="enable-background:new 0 0 750 500;" xml:space="preserve">
<g id="BACKGROUND">
	<rect style="fill:#FFFFFF;" width="750" height="500"/>
</g>
<g id="OBJECTS">
	<g>
		
			<path style="fill:none;stroke:#263F5C;stroke-width:0.9311;stroke-linecap:round;stroke-miterlimit:10;stroke-dasharray:9.3113,9.3113,9.3113;" d="
			M149.383,278.176c-20.906,11.869-47.805,12.438-69.195,1.464c-10.262-5.265-19.454-13.293-24.217-23.797
			c-4.764-10.504-4.477-23.634,2.382-32.907s20.71-13.273,30.717-7.539c5.393,3.09,9.299,10.501,5.614,15.507
			c-2.686,3.649-8.284,4.09-12.331,2.053c-4.047-2.037-6.813-5.932-9.042-9.877c-16.967-30.034-9.061-71.793,17.71-93.546
			c26.771-21.754,69.264-20.948,95.191,1.805"/>
		
			<path style="fill:none;stroke:#263F5C;stroke-width:0.9311;stroke-linecap:round;stroke-miterlimit:10;stroke-dasharray:9.3113,9.3113,9.3113;" d="
			M294.35,102.041c-0.896-12.509,4.034-25.316,13.086-33.995c9.053-8.679,22.055-13.066,34.516-11.643
			c10.353,1.182,20.559,6.639,25.691,15.707c2.459,4.344,3.677,9.6,2.306,14.399c-1.371,4.799-5.731,8.879-10.721,8.973
			c-5.793,0.11-10.706-5.16-11.665-10.875s0.836-11.865,4.49-16.363c11.272-13.875,40.864-24.274,64.349-12.105
			c29.316,15.19,33.006,45.04,29.171,53.877"/>
		
			<path style="fill:none;stroke:#263F5C;stroke-width:0.9311;stroke-linecap:round;stroke-miterlimit:10;stroke-dasharray:9.3113,9.3113,9.3113;" d="
			M469.6,108.35c4.593-14.338,19.189-24.047,34.168-25.562c14.979-1.515,29.998,4.109,42.357,12.708
			c4.755,3.308,9.219,7.077,12.982,11.48c17.396,20.353,17.112,50.291,12.461,76.658"/>
		
			<path style="fill:none;stroke:#263F5C;stroke-width:0.9311;stroke-linecap:round;stroke-miterlimit:10;stroke-dasharray:9.3113,9.3113,9.3113;" d="
			M584.649,222.557c19.52-14.138,46.336-16.21,69.021-8.07c15.872,5.695,30.363,16.484,38.069,31.483
			c7.706,14.999,7.667,34.353-2.214,48.017c-9.882,13.664-30.073,19.605-44.831,11.446c-6.892-3.81-12.483-12.618-8.436-19.374
			c2.626-4.383,8.551-5.997,13.493-4.699c4.942,1.298,8.958,4.957,11.979,9.079c10.99,14.997,10.175,36.618,0.838,52.696
			c-9.336,16.078-25.905,26.996-43.536,32.895c-17.632,5.899-36.427,7.266-55.006,7.967"/>
	</g>
	<g>
		
			<ellipse transform="matrix(0.1632 -0.9866 0.9866 0.1632 -14.0633 504.7973)" style="fill:#85C2C1;" cx="290.542" cy="260.689" rx="59.055" ry="59.055"/>
		<polygon style="fill:#85C2C1;" points="309.638,216.337 355.207,200.962 329.795,239.102 		"/>
		<g>
			<path style="fill:#FFFFFF;" d="M271.804,262.811c0,2.779-2.253,5.031-5.031,5.031c-2.779,0-5.031-2.253-5.031-5.031
				s2.253-5.031,5.031-5.031C269.551,257.779,271.804,260.032,271.804,262.811z"/>
			<circle style="fill:#FFFFFF;" cx="290.542" cy="262.811" r="5.031"/>
			<circle style="fill:#FFFFFF;" cx="314.312" cy="262.811" r="5.031"/>
		</g>
	</g>
	<g>
		
			<ellipse transform="matrix(0.2423 -0.9702 0.9702 0.2423 354.9884 724.2668)" style="fill:#263F5C;" cx="641.173" cy="134.868" rx="47.963" ry="47.963"/>
		<polygon style="fill:#263F5C;" points="637.41,173.906 605.984,197.103 616.173,161.301 		"/>
		<g>
			<path style="fill:#FFFFFF;" d="M622.865,134.868c0,2.779-2.253,5.031-5.031,5.031c-2.779,0-5.032-2.253-5.032-5.031
				c0-2.779,2.253-5.031,5.032-5.031C620.613,129.837,622.865,132.089,622.865,134.868z"/>
			<circle style="fill:#FFFFFF;" cx="641.604" cy="134.868" r="5.031"/>
			<circle style="fill:#FFFFFF;" cx="665.373" cy="134.868" r="5.031"/>
		</g>
	</g>
	<g>
		<rect x="115.73" y="80.159" style="fill:#F1D055;" width="206.44" height="106.719"/>
		<rect x="115.73" y="80.159" style="fill:#0C143B;" width="206.44" height="20.981"/>
		<path style="fill:#F1D055;" d="M261.576,91.258c0,2.2,1.783,3.983,3.983,3.983c2.199,0,3.983-1.783,3.983-3.983
			c0-2.2-1.783-3.983-3.983-3.983C263.359,87.275,261.576,89.058,261.576,91.258z"/>
		<path style="fill:#F1D055;" d="M279,91.258c0,2.2,1.783,3.983,3.983,3.983c2.199,0,3.983-1.783,3.983-3.983
			c0-2.2-1.783-3.983-3.983-3.983C280.783,87.275,279,89.058,279,91.258z"/>
		<path style="fill:#F1D055;" d="M297.586,91.258c0,2.2,1.783,3.983,3.983,3.983c2.2,0,3.983-1.783,3.983-3.983
			c0-2.2-1.783-3.983-3.983-3.983C299.369,87.275,297.586,89.058,297.586,91.258z"/>
		<rect x="127.088" y="110.015" style="fill:#D3E7EB;" width="167.158" height="11.399"/>
		<rect x="127.088" y="127.819" style="fill:#D3E7EB;" width="167.158" height="11.399"/>
	</g>
	<g>
		<g>
			<path style="fill:#874545;" d="M406.403,179.287c-3.723,5.002-4.802,13.411-0.659,16.429c4.143,3.018,11.941-0.498,15.664-5.501
				c3.723-5.002,3.383-11.504-0.761-14.522C416.504,172.676,410.126,174.285,406.403,179.287z"/>
			<g>
				<g>
					<path style="fill:#0C143B;" d="M407.992,189.297c-0.082,0.107,0.073-0.089,0.102-0.122c0.115-0.137,0.235-0.27,0.357-0.401
						c0.439-0.47,0.914-0.908,1.415-1.312c1.534-1.237,3.337-2.128,5.279-2.49c0.349-0.065,0.201-0.597-0.147-0.532
						c-2.013,0.376-3.865,1.311-5.459,2.582c-0.736,0.587-1.45,1.246-2.023,1.998C407.3,189.301,407.779,189.576,407.992,189.297
						L407.992,189.297z"/>
				</g>
			</g>
		</g>
		<path style="fill:#2F5356;" d="M380.7,396.596c-23.513-2.123-45.074-8.935-48.992-21.358l102.36,9.788
			c0,0-7.877,12.301-36.912,12.301C391.696,397.327,386.146,397.087,380.7,396.596"/>
		<g>
			<path style="fill:#0E133A;" d="M389.295,444.151h50.044c-0.307-39.311-3.532-74.158-13.19-83.753l-50.098-1.037v46.766
				l7.854-0.153C383.905,405.974,385.412,417.613,389.295,444.151z"/>
			<path style="fill:#0E133A;" d="M374.938,444.151c1.703-24.16,3.412-38.069,3.412-38.069l3.474-0.068l3.494-45.585l-44.902-1.068
				c-8.875,24.812-11.796,54.878-11.553,84.79H374.938z"/>
		</g>
		<path style="fill:#B26666;" d="M355.431,240.213c26.013-8.02,18.918-34.588,18.918-34.588h25.844c0,0-7.095,26.568,18.918,34.588
			c1.621,0.499,3.15,1.001,4.615,1.506c-20.638,20.424-54.448,15.318-72.824,0.323c-0.011-0.116-0.026-0.231-0.036-0.347
			C352.316,241.197,353.835,240.705,355.431,240.213z"/>
		<g>
			<path style="fill:#874545;" d="M399.347,211.924c0.167-3.753,0.846-6.299,0.846-6.299l-11.993-1.447v-0.224l-0.929,0.112
				l-0.929-0.112v0.224l-11.993,1.447c0,0,1.158,4.34,0.822,10.041C377.804,220.979,387.272,228.349,399.347,211.924z"/>
		</g>
		<path style="fill:#B26666;" d="M357.012,162.261c-1.089,10.846-1.995,34.211,8.217,44.408
			c13.428,13.409,36.654,5.472,42.313-8.271c4.884-11.862,4.865-33.591-3.674-47.872c-4.425-7.401-13.719-12.781-25.138-12.202
			C361.785,139.183,357.355,158.844,357.012,162.261z"/>
		<g>
			<g>
				<path style="fill:#0C143B;" d="M378.712,166.39c-0.303,5.99-0.606,11.98-0.91,17.97c-0.043,0.853-0.086,1.705-0.13,2.558
					c-0.006,0.112,0.089,0.244,0.203,0.266c1.319,0.255,2.638,0.51,3.957,0.765c0.347,0.067,0.495-0.465,0.147-0.532
					c-0.828-0.16-1.657-0.32-2.485-0.48c-0.306-0.059-0.965-0.327-1.267-0.245c-0.026,0.007-0.119-0.043-0.151-0.029
					c-0.158,0.066,0.211,0.143,0.149,0.253c0.015-0.026-0.009-0.073,0.005-0.1c0.143-0.269,0.047-0.929,0.062-1.227
					c0.041-0.803,0.081-1.607,0.122-2.41c0.224-4.432,0.449-8.865,0.673-13.297c0.059-1.164,0.118-2.327,0.177-3.491
					C379.281,166.036,378.73,166.036,378.712,166.39L378.712,166.39z"/>
			</g>
		</g>
		<g>
			<path style="fill:#874545;" d="M392.582,189.753c0,2.787,2.618,5.047,5.847,5.047c3.229,0,5.847-2.26,5.847-5.047
				c0-2.787-2.618-5.047-5.847-5.047C395.2,184.706,392.582,186.965,392.582,189.753z"/>
		</g>
		<g>
			<path style="fill:#874545;" d="M359.038,189.753c0,2.787,2.618,5.047,5.847,5.047c3.229,0,5.847-2.26,5.847-5.047
				c0-2.787-2.618-5.047-5.847-5.047C361.656,184.706,359.038,186.965,359.038,189.753z"/>
		</g>
		<path style="fill:#322E6E;" d="M397.768,169.932c-0.217,1.122-2.361,0.563-5.041,0.056c-2.68-0.507-4.882-0.769-4.665-1.891
			c0.217-1.121,2.565-1.62,5.245-1.114C395.988,167.49,397.985,168.81,397.768,169.932z"/>
		<path style="fill:#322E6E;" d="M373.038,167.688c0.222,1.121-1.978,1.393-4.656,1.912c-2.678,0.519-4.819,1.087-5.041-0.034
			s1.769-2.45,4.447-2.968C370.466,166.079,372.816,166.567,373.038,167.688z"/>
		<path style="fill:#0C143B;" d="M392.121,180.134c0,1.71-0.833,3.097-1.862,3.097c-1.028,0-1.862-1.387-1.862-3.097
			c0-1.71,0.834-3.097,1.862-3.097C391.287,177.037,392.121,178.423,392.121,180.134z"/>
		<path style="fill:#0C143B;" d="M373.053,180.134c0,1.71-0.834,3.097-1.862,3.097c-1.028,0-1.862-1.387-1.862-3.097
			c0-1.71,0.834-3.097,1.862-3.097C372.22,177.037,373.053,178.423,373.053,180.134z"/>
		<g>
			<path style="fill:#B26666;" d="M446.477,372.716c0,0-5.227-4.145-10.335,0.234c-5.108,4.379-12.263,3.159-13.616,6.218
				c-1.118,2.528,3.418,3.604,6.88,2.977c2.534-0.459,5.143-2.432,5.115-1.75c-0.027,0.682-1.001,4.787-2.569,6.555
				c-1.782,2.008-11.464,11.376-11.961,11.746c-3.721,2.773-2.031,4.388-2.031,4.388c2.061,2.803,8.777-3.13,10.668-4.757
				c2.852-2.455,7.28-6.879,7.28-6.879l0.471,0.324c0,0-9.225,17.98-9.693,18.919c-0.796,1.594,0.039,2.6,0.497,2.863
				c0.698,0.4,1.996,0.444,3.471-1.334c2.228-2.685,9.552-12.516,11.565-16.968c0,0-4.245,10.675-4.658,15.197
				c-0.137,1.5-0.402,3.913,1.302,4.221c1.943,0.351,3.023-2.95,3.228-3.443c1.398-3.369,4.285-11.447,4.932-15.232l0.713-0.102
				c0,0,3.63,9.816,4.441,12.692c0.078,0.277,0.426,1.67,1.689,1.6c1.984-0.111,1.705-2.047,1.668-2.446
				c-0.187-1.983-0.845-8.36-1.855-11.941c-0.355-1.256-0.327-2.591,0.152-3.805c1.127-2.853,2.766-8.338,1.021-12.911
				C452.372,372.578,446.477,372.716,446.477,372.716z"/>
			<path style="fill:#B26666;" d="M417.578,263.26l43.839,54.935c0,0-13.148,41.548-18.154,57.043l12.331,7.607
				c0,0,24.176-44.549,26.361-65.961c2.185-21.412-55.138-76.202-55.138-76.202L417.578,263.26z"/>
		</g>
		<g>
			<path style="fill:#B26666;" d="M328.887,372.716c0,0,5.227-4.145,10.335,0.234c5.108,4.379,12.263,3.159,13.616,6.218
				c1.118,2.528-3.419,3.604-6.881,2.977c-2.534-0.459-5.143-2.432-5.115-1.75c0.027,0.682,1,4.787,2.569,6.555
				c1.782,2.008,11.464,11.376,11.961,11.746c3.721,2.773,2.031,4.388,2.031,4.388c-2.061,2.803-8.777-3.13-10.668-4.757
				c-2.853-2.455-7.28-6.879-7.28-6.879l-0.471,0.324c0,0,9.225,17.98,9.694,18.919c0.796,1.594-0.039,2.6-0.497,2.863
				c-0.698,0.4-1.996,0.444-3.471-1.334c-2.228-2.685-9.553-12.516-11.565-16.968c0,0,4.244,10.675,4.658,15.197
				c0.137,1.5,0.402,3.913-1.301,4.221c-1.944,0.351-3.023-2.95-3.228-3.443c-1.398-3.369-4.285-11.447-4.932-15.232l-0.714-0.102
				c0,0-3.63,9.816-4.441,12.692c-0.078,0.277-0.426,1.67-1.689,1.6c-1.984-0.111-1.705-2.047-1.667-2.446
				c0.187-1.983,0.845-8.36,1.855-11.941c0.354-1.256,0.327-2.591-0.152-3.805c-1.127-2.853-2.766-8.338-1.021-12.911
				C322.992,372.578,328.887,372.716,328.887,372.716z"/>
			<path style="fill:#B26666;" d="M357.786,263.26l-43.84,54.935c0,0,13.148,41.548,18.154,57.043l-12.331,7.607
				c0,0-24.176-44.549-26.361-65.961c-2.185-21.412,55.138-76.202,55.138-76.202L357.786,263.26z"/>
		</g>
		<path style="fill:#874545;" d="M379.043,202.123c0,0.271,0.526,0.492,1.174,0.492c0.648,0,1.174-0.22,1.174-0.492
			s-0.526-0.492-1.174-0.492C379.568,201.631,379.043,201.851,379.043,202.123z"/>
		<path style="fill:#B53E27;" d="M484.168,306.458c-3.68-13.714-16.796-29.468-22.191-35.532
			c-29.035-38.218-47.759-35.306-47.759-35.306c-16.153,6.892-36.684,6.413-53.071,0c0,0-18.797-2.927-47.929,35.527
			c0,0-19.87,20.698-24.54,38.1c-5.835,21.741,16.732,55.55,16.732,55.55l23.433-9.37l-12.056-37.546l19.765-25.566
			c-2.135,31.008-4.844,82.924-4.844,82.924c15.071,9.771,35.709,13.084,54.604,13.647h2.347
			c18.896-0.563,39.533-3.876,54.604-13.647c0,0-2.7-51.791-4.834-82.781c0.034-0.013,0.066-0.026,0.1-0.039l17.529,22.673
			l-12.055,37.546l23.433,9.37C467.436,362.008,490.003,328.199,484.168,306.458z"/>
		<path style="fill:#717171;" d="M361.147,235.62c0,0,2.451,18.429,24.171,45.2c0,0,28.918-18.828,28.9-45.2
			C414.218,235.62,388.048,247.169,361.147,235.62z"/>
		<path style="fill:#9E9E9E;" d="M388.088,240.74c0,0-23.894,9.164-25.679,25.45c0,0-11.003-19.868-1.263-30.57
			C361.147,235.62,377.849,241.392,388.088,240.74z"/>
		<path style="fill:#9E9E9E;" d="M387.605,240.74c0,0,23.894,9.164,25.679,25.45c0,0,11.003-19.868,1.263-30.57
			C414.547,235.62,397.845,241.392,387.605,240.74z"/>
		<polygon style="fill:#717171;" points="328.843,355.427 330.842,362.286 307.752,370.941 305.409,364.796 		"/>
		<polygon style="fill:#717171;" points="443.985,352.648 441.986,359.508 465.076,368.162 467.418,362.017 		"/>
		<g>
			<path style="fill:#4B1612;" d="M374.683,191.954c0,0,6.691,3.434,13.395,0c0,0,0.857,6.787-6.053,7.266
				C374.053,199.772,374.683,191.954,374.683,191.954z"/>
			<g>
				<defs>
					<path id="SVGID_1_" d="M374.683,191.954c0,0,6.691,3.434,13.395,0c0,0,0.857,6.787-6.053,7.266
						C374.053,199.772,374.683,191.954,374.683,191.954z"/>
				</defs>
				<clipPath id="SVGID_00000037659391705539627120000006553904655447774391_">
					<use xlink:href="#SVGID_1_"  style="overflow:visible;"/>
				</clipPath>
				<path style="clip-path:url(#SVGID_00000037659391705539627120000006553904655447774391_);fill:#6D2D25;" d="M376.193,199.752
					c0,0,0.958-3.263,5.534-3.086c4.576,0.177,6.385,3.334,6.385,3.334S382.081,205.143,376.193,199.752z"/>
				<path style="clip-path:url(#SVGID_00000037659391705539627120000006553904655447774391_);fill:#FFFFFF;" d="M387.006,191.954
					c0,0,0.284,2.737-5.782,2.723c-6.066-0.014-5.285-3.1-5.285-3.1L387.006,191.954z"/>
			</g>
		</g>
		<path style="fill:#322E6E;" d="M417.578,174.171c-2.247,0-4.165,1.631-4.509,3.851c-0.52,3.351-1.505,7.648-3.124,7.48
			c-2.639-0.274-11.516-36.17-11.516-36.17s-1.813,12.933-32.694,10.03c0,0,8.974-3.695,10.03-10.69c0,0-5.612,9.344-18.643,12.788
			c0,0-7.092-30.472,36.459-24.93C437.132,142.074,417.578,174.171,417.578,174.171L417.578,174.171z"/>
	</g>
	<g>
		<circle style="fill:#0C143B;" cx="194.65" cy="145.759" r="12.24"/>
		<circle style="fill:#0C143B;" cx="175.967" cy="144.98" r="12.24"/>
		<circle style="fill:#0C143B;" cx="160.334" cy="154.306" r="12.24"/>
		<circle style="fill:#0C143B;" cx="149.6" cy="166.546" r="12.24"/>
		<circle style="fill:#0C143B;" cx="146.294" cy="178.786" r="12.24"/>
		<circle style="fill:#0C143B;" cx="206.215" cy="155.788" r="12.24"/>
		<circle style="fill:#0C143B;" cx="210.667" cy="171.563" r="12.24"/>
		<circle style="fill:#0C143B;" cx="199.413" cy="183.804" r="12.24"/>
		<g>
			<path style="fill:#D29B70;" d="M157.236,186.006c3.645,4.898,4.702,13.131,0.645,16.086c-4.057,2.955-11.691-0.488-15.336-5.385
				c-3.646-4.897-3.312-11.263,0.745-14.218C147.347,179.534,153.59,181.109,157.236,186.006z"/>
			<g>
				<g>
					<path style="fill:#0C143B;" d="M156.147,195.535c-0.561-0.735-1.26-1.381-1.981-1.956c-1.561-1.244-3.375-2.16-5.345-2.528
						c-0.34-0.064-0.485,0.457-0.144,0.521c1.901,0.355,3.667,1.227,5.168,2.438c0.484,0.391,0.944,0.813,1.369,1.267
						c0.125,0.134,0.248,0.27,0.366,0.41c0.028,0.034,0.18,0.225,0.1,0.12C155.888,196.08,156.358,195.811,156.147,195.535
						L156.147,195.535z"/>
				</g>
			</g>
		</g>
		<path style="fill:#2F5356;" d="M182.401,398.767c23.021-2.078,44.131-8.748,47.966-20.91l-100.218,9.583
			c0,0,7.712,12.044,36.14,12.044C171.635,399.483,177.069,399.248,182.401,398.767"/>
		<g>
			<path style="fill:#090D1F;" d="M174.158,444.151c3.675-25.155,5.104-36.202,5.104-36.202l7.69,0.15v-45.787l-49.05,1.015
				c-9.359,9.298-12.548,42.818-12.904,80.824H174.158z"/>
			<path style="fill:#090D1F;" d="M184.702,408.055c0,0,1.618,13.166,3.257,36.096h45.204c0.152-28.896-2.749-57.872-11.322-81.84
				l-43.962,1.046l3.421,44.631L184.702,408.055z"/>
		</g>
		<path style="fill:#ECC4A1;" d="M207.14,245.657c-25.468-7.852-18.522-33.864-18.522-33.864h-25.303
			c0,0,6.946,26.012-18.522,33.864c-1.587,0.489-3.084,0.98-4.518,1.475c20.207,19.996,53.308,14.997,71.299,0.316
			c0.011-0.113,0.025-0.226,0.036-0.339C210.191,246.621,208.704,246.139,207.14,245.657z"/>
		<g>
			<path style="fill:#D29B70;" d="M164.144,217.96c-0.164-3.674-0.829-6.167-0.829-6.167l11.742-1.416v-0.219l0.909,0.11l0.91-0.11
				v0.219l11.742,1.416c0,0-1.134,4.249-0.805,9.831C185.237,226.826,175.967,234.042,164.144,217.96z"/>
		</g>
		<path style="fill:#ECC4A1;" d="M205.593,169.337c1.067,10.619,1.954,33.495-8.045,43.479
			c-13.147,13.129-35.887,5.358-41.427-8.098c-4.782-11.613-4.763-32.888,3.597-46.87c4.332-7.246,13.431-12.514,24.611-11.947
			C200.92,146.742,205.257,165.992,205.593,169.337z"/>
		<g>
			<g>
				<path style="fill:#0C143B;" d="M183.808,173.38c0.152,3.004,0.304,6.008,0.456,9.011c0.112,2.219,0.225,4.439,0.337,6.658
					c0.044,0.866,0.088,1.732,0.132,2.598c0.023,0.465-0.058,1.109,0.079,1.557c0.021,0.071-0.026,0.208,0.014,0.271
					c-0.207-0.333,0.455-0.206-0.107-0.198c-0.214,0.003-0.461,0.089-0.67,0.129c-0.966,0.187-1.932,0.373-2.898,0.56
					c-0.341,0.066-0.196,0.587,0.144,0.521c1.291-0.249,2.583-0.499,3.874-0.748c0.11-0.021,0.204-0.149,0.198-0.26
					c-0.297-5.865-0.594-11.729-0.891-17.594c-0.042-0.835-0.084-1.67-0.127-2.505C184.33,173.034,183.79,173.032,183.808,173.38
					L183.808,173.38z"/>
			</g>
		</g>
		<g>
			<path style="fill:#D57F6D;" d="M170.768,196.253c0,2.729-2.563,4.941-5.725,4.941c-3.162,0-5.725-2.212-5.725-4.941
				c0-2.729,2.563-4.941,5.725-4.941C168.204,191.312,170.768,193.524,170.768,196.253z"/>
		</g>
		<g>
			<path style="fill:#D57F6D;" d="M203.61,196.253c0,2.729-2.563,4.941-5.725,4.941c-3.162,0-5.725-2.212-5.725-4.941
				c0-2.729,2.563-4.941,5.725-4.941C201.046,191.312,203.61,193.524,203.61,196.253z"/>
		</g>
		<path style="fill:#0C143B;" d="M165.69,176.848c0.212,1.098,2.311,0.551,4.935,0.055c2.624-0.496,4.779-0.753,4.567-1.851
			c-0.212-1.098-2.511-1.586-5.135-1.09C167.433,174.457,165.478,175.749,165.69,176.848z"/>
		<path style="fill:#0C143B;" d="M189.903,174.65c-0.217,1.097,1.937,1.364,4.559,1.872c2.622,0.508,4.718,1.064,4.936-0.033
			c0.217-1.098-1.732-2.398-4.354-2.906C192.421,173.075,190.12,173.553,189.903,174.65z"/>
		<path style="fill:#0C143B;" d="M171.219,186.836c0,1.674,0.816,3.032,1.823,3.032c1.007,0,1.823-1.358,1.823-3.032
			c0-1.675-0.816-3.032-1.823-3.032C172.035,183.804,171.219,185.161,171.219,186.836z"/>
		<path style="fill:#0C143B;" d="M189.887,186.836c0,1.674,0.816,3.032,1.823,3.032c1.007,0,1.823-1.358,1.823-3.032
			c0-1.675-0.816-3.032-1.823-3.032C190.704,183.804,189.887,185.161,189.887,186.836z"/>
		<g>
			<path style="fill:#ECC4A1;" d="M118,375.387c0,0,5.117-4.059,10.119,0.229c5.001,4.288,12.006,3.093,13.331,6.088
				c1.094,2.475-3.347,3.528-6.736,2.915c-2.481-0.449-5.035-2.381-5.008-1.713c0.027,0.668,0.98,4.687,2.515,6.418
				c1.745,1.966,11.224,11.138,11.71,11.501c3.643,2.715,1.988,4.296,1.988,4.296c-2.018,2.745-8.593-3.064-10.444-4.658
				c-2.793-2.404-7.128-6.735-7.128-6.735l-0.461,0.317c0,0,9.032,17.604,9.491,18.523c0.779,1.56-0.039,2.546-0.487,2.803
				c-0.683,0.392-1.954,0.434-3.398-1.306c-2.181-2.629-9.353-12.254-11.323-16.613c0,0,4.156,10.451,4.56,14.879
				c0.134,1.469,0.394,3.831-1.274,4.133c-1.903,0.344-2.96-2.888-3.16-3.371c-1.368-3.298-4.195-11.207-4.829-14.914l-0.699-0.1
				c0,0-3.554,9.611-4.348,12.426c-0.077,0.272-0.417,1.635-1.653,1.566c-1.942-0.108-1.67-2.005-1.633-2.395
				c0.184-1.942,0.827-8.185,1.816-11.691c0.347-1.23,0.321-2.537-0.149-3.725c-1.103-2.793-2.708-8.164-0.999-12.641
				C112.229,375.251,118,375.387,118,375.387z"/>
			<path style="fill:#ECC4A1;" d="M146.294,268.223l-42.922,53.785c0,0,12.873,40.678,17.774,55.849l-12.073,7.447
				c0,0-23.67-43.616-25.809-64.58c-2.139-20.964,53.984-74.607,53.984-74.607L146.294,268.223z"/>
		</g>
		<g>
			<path style="fill:#ECC4A1;" d="M233.129,375.387c0,0-5.117-4.059-10.119,0.229c-5.001,4.288-12.006,3.093-13.331,6.088
				c-1.094,2.475,3.347,3.528,6.737,2.915c2.481-0.449,5.035-2.381,5.008-1.713c-0.027,0.668-0.98,4.687-2.515,6.418
				c-1.745,1.966-11.224,11.138-11.71,11.501c-3.643,2.715-1.988,4.296-1.988,4.296c2.018,2.745,8.593-3.064,10.444-4.658
				c2.793-2.404,7.128-6.735,7.128-6.735l0.461,0.317c0,0-9.032,17.604-9.491,18.523c-0.779,1.56,0.039,2.546,0.487,2.803
				c0.683,0.392,1.954,0.434,3.398-1.306c2.181-2.629,9.353-12.254,11.323-16.613c0,0-4.156,10.451-4.56,14.879
				c-0.134,1.469-0.394,3.831,1.274,4.133c1.903,0.344,2.96-2.888,3.16-3.371c1.369-3.298,4.195-11.207,4.829-14.914l0.699-0.1
				c0,0,3.554,9.611,4.348,12.426c0.077,0.272,0.417,1.635,1.653,1.566c1.942-0.108,1.67-2.005,1.633-2.395
				c-0.184-1.942-0.827-8.185-1.816-11.691c-0.347-1.23-0.321-2.537,0.149-3.725c1.103-2.793,2.708-8.164,0.999-12.641
				C238.901,375.251,233.129,375.387,233.129,375.387z"/>
			<path style="fill:#ECC4A1;" d="M204.835,268.223l42.922,53.785c0,0-12.873,40.678-17.774,55.849l12.073,7.447
				c0,0,23.67-43.616,25.809-64.58c2.139-20.964-53.984-74.607-53.984-74.607L204.835,268.223z"/>
		</g>
		<path style="fill:#D29B70;" d="M183.467,208.199c0,0.266-0.515,0.481-1.15,0.481c-0.635,0-1.15-0.215-1.15-0.481
			c0-0.266,0.515-0.481,1.15-0.481C182.953,207.718,183.467,207.934,183.467,208.199z"/>
		<path style="fill:#4354A3;" d="M81.099,310.516c3.603-13.427,16.444-28.851,21.727-34.788
			c28.427-37.418,46.759-34.567,46.759-34.567c15.815,6.747,35.916,6.279,51.96,0c0,0,18.403-2.866,46.926,34.783
			c0,0,19.454,20.265,24.027,37.302c5.713,21.286-16.382,54.387-16.382,54.387l-22.943-9.174l11.803-36.76l-19.352-25.031
			c2.091,30.359,4.743,81.189,4.743,81.189c-14.756,9.566-34.962,12.81-53.461,13.361h-2.298
			c-18.5-0.551-38.706-3.795-53.461-13.361c0,0,2.644-50.707,4.733-81.048c-0.034-0.013-0.064-0.026-0.098-0.038l-17.162,22.199
			l11.803,36.76l-22.943,9.174C97.48,364.903,75.386,331.802,81.099,310.516z"/>
		<path style="fill:#D1E0F9;" d="M149.585,241.161c-1.078,7.745-0.998,15.589-0.126,23.273L148.79,388.67
			c24.957,6.145,52.755,0,52.755,0V241.161C173.366,251.61,149.585,241.161,149.585,241.161z"/>
		<path style="fill:#EFF5FF;" d="M176.412,245.8c0,0,22.149,9.346,23.897,25.291c0,0,10.773-19.452,1.236-29.93
			C201.545,241.161,187.904,245.672,176.412,245.8z"/>
		<path style="fill:#EFF5FF;" d="M175.345,245.805c0,0-23.099,9.341-24.846,25.286c0,0-10.773-19.452-1.236-29.93
			C149.263,241.161,165.843,245.452,175.345,245.805z"/>
		<polygon style="fill:#EFF5FF;" points="233.173,358.459 231.215,365.176 253.822,373.649 256.115,367.633 		"/>
		<polygon style="fill:#EFF5FF;" points="120.44,355.739 122.397,362.455 99.791,370.928 97.497,364.912 		"/>
		<path style="fill:#0C143B;" d="M149.963,177.487c0,0-2.619,18.119,3.936,19.463c0,0,3.256-38.049,18.235-43.064
			c0,0,15.902-11.745,23.293,5.015c7.39,16.76,10.662,17.22,10.662,17.22s5.768-25.861-12.114-31.141
			c-17.882-5.281-34.657,5.937-34.657,5.937L149.963,177.487z"/>
		
			<line style="fill:none;stroke:#EFF5FF;stroke-width:0.9311;stroke-miterlimit:10;" x1="176.412" y1="245.8" x2="176.412" y2="388.67"/>
		<g>
			<path style="fill:#4B1612;" d="M189.026,197.878c0,0-6.691,3.434-13.395,0c0,0-0.856,6.787,6.053,7.266
				C189.656,205.696,189.026,197.878,189.026,197.878z"/>
			<g>
				<defs>
					<path id="SVGID_00000036966955658659151020000014725162577865081000_" d="M189.026,197.878c0,0-6.691,3.434-13.395,0
						c0,0-0.856,6.787,6.053,7.266C189.656,205.696,189.026,197.878,189.026,197.878z"/>
				</defs>
				<clipPath id="SVGID_00000008114943505349367070000009974379479320432312_">
					<use xlink:href="#SVGID_00000036966955658659151020000014725162577865081000_"  style="overflow:visible;"/>
				</clipPath>
				<path style="clip-path:url(#SVGID_00000008114943505349367070000009974379479320432312_);fill:#6D2D25;" d="M187.516,205.676
					c0,0-0.958-3.264-5.534-3.086c-4.576,0.177-6.385,3.334-6.385,3.334S181.628,211.067,187.516,205.676z"/>
				<path style="clip-path:url(#SVGID_00000008114943505349367070000009974379479320432312_);fill:#FFFFFF;" d="M176.703,197.878
					c0,0-0.284,2.737,5.782,2.723c6.066-0.014,5.285-3.1,5.285-3.1L176.703,197.878z"/>
			</g>
		</g>
	</g>
	<g>
		<path style="fill:#0C143B;" d="M581.244,158.879c0,0,20.06-5.562,20.763,23.965c0.704,29.527,33.573,31.555,15.336,51.874
			c0,0,6.659-11.965-3.371-17.948c0,0,15.133,18.476-32.729,29.737l-19.843-26.922L581.244,158.879z"/>
		<path style="fill:#DDA086;" d="M529.048,248.414c0,0-18.991,2.984-21.119,54.49c-2.128,51.506-21.283,105.991-21.283,105.991
			l9.365,8.019c0,0,34.992-68.038,36.013-131.888L529.048,248.414z"/>
		<path style="fill:#DDA086;" d="M597.629,248.414c0,0,18.991,2.984,21.119,54.49c2.128,51.506,21.283,105.991,21.283,105.991
			l-9.365,8.019c0,0-34.992-68.038-36.013-131.888L597.629,248.414z"/>
		<g>
			<g>
				<g>
					<path style="fill:#DDA086;" d="M580.755,187.598c-3.627,4.873-4.678,13.064-0.642,16.004c4.036,2.94,11.632-0.486,15.258-5.358
						c3.627-4.873,3.295-11.206-0.741-14.146C590.594,181.158,584.381,182.725,580.755,187.598z"/>
				</g>
				<g>
					<g>
						<path style="fill:#0C143B;" d="M578.733,201.733c0.924-3.596,4.192-6.542,7.507-7.9c2.083-0.853,4.325-1.208,6.567-1.265
							c0.345-0.009,0.347-0.546,0-0.537c-3.62,0.092-7.247,0.999-10.141,3.255c-1.717,1.338-3.123,3.1-4.002,5.095
							c-0.172,0.391-0.342,0.795-0.448,1.21C578.128,201.926,578.647,202.068,578.733,201.733L578.733,201.733z"/>
					</g>
				</g>
			</g>
		</g>
		<g>
			<g>
				<g>
					<path style="fill:#4354A3;" d="M566.836,444.151h48.95c-0.367-37.696-3.548-70.902-12.837-80.13l-48.801-1.01v45.555
						l7.651-0.149C561.799,408.417,563.211,419.327,566.836,444.151z"/>
				</g>
				<g>
					<path style="fill:#4354A3;" d="M553.166,444.151c1.624-22.638,3.221-35.629,3.221-35.629l3.384-0.066l3.403-44.405
						l-43.739-1.041c-6.889,24.269-9.208,52.839-9.038,81.141H553.166z"/>
				</g>
			</g>
		</g>
		<path style="fill:#DDA086;" d="M531.102,246.946c25.339-7.813,18.429-33.693,18.429-33.693h25.175c0,0-6.911,25.88,18.429,33.693
			c1.579,0.487,3.068,0.975,4.495,1.467c-20.104,19.895-53.038,14.921-70.938,0.314c-0.011-0.113-0.025-0.225-0.035-0.338
			C528.067,247.906,529.547,247.426,531.102,246.946z"/>
		<g>
			<path style="fill:#C08672;" d="M573.881,219.39c0.163-3.655,0.824-6.136,0.824-6.136l-11.682-1.409v-0.218l-0.905,0.109
				l-0.905-0.109v0.218l-11.682,1.409c0,0,1.128,4.227,0.801,9.781C552.896,228.211,562.118,235.39,573.881,219.39z"/>
		</g>
		<path style="fill:#DDA086;" d="M532.642,171.012c-1.061,10.565-1.944,33.325,8.004,43.259
			c13.081,13.062,35.705,5.331,41.217-8.057c4.758-11.554,4.739-32.721-3.579-46.632c-4.311-7.209-13.363-12.45-24.487-11.886
			C537.291,148.533,532.976,167.685,532.642,171.012z"/>
		<g>
			<g>
				<path style="fill:#0C143B;" d="M552.608,175.035c-0.295,5.835-0.591,11.67-0.886,17.505c-0.042,0.831-0.084,1.661-0.126,2.492
					c-0.005,0.109,0.087,0.238,0.197,0.259c1.285,0.248,2.57,0.496,3.855,0.745c0.338,0.065,0.483-0.453,0.143-0.518
					c-0.807-0.156-1.614-0.312-2.421-0.468c-0.298-0.058-0.94-0.318-1.234-0.238c-0.026,0.007-0.116-0.041-0.147-0.028
					c-0.154,0.064,0.206,0.139,0.145,0.246c0.014-0.025-0.009-0.071,0.005-0.097c0.139-0.262,0.046-0.905,0.06-1.196
					c0.04-0.783,0.079-1.565,0.119-2.348c0.219-4.318,0.437-8.635,0.656-12.953c0.057-1.133,0.115-2.267,0.172-3.4
					C553.162,174.69,552.625,174.691,552.608,175.035L552.608,175.035z"/>
			</g>
		</g>
		<g>
			<path style="fill:#D57F6D;" d="M567.291,197.793c0,2.715,2.55,4.916,5.696,4.916c3.146,0,5.696-2.201,5.696-4.916
				c0-2.715-2.55-4.917-5.696-4.917C569.841,192.876,567.291,195.077,567.291,197.793z"/>
		</g>
		<g>
			<path style="fill:#D57F6D;" d="M534.615,197.793c0,2.715,2.55,4.916,5.696,4.916c3.146,0,5.696-2.201,5.696-4.916
				c0-2.715-2.55-4.917-5.696-4.917C537.166,192.876,534.615,195.077,534.615,197.793z"/>
		</g>
		<path style="fill:#0C143B;" d="M570.869,178.884c-0.211,1.092-2.299,0.548-4.91,0.055c-2.611-0.494-4.755-0.749-4.544-1.842
			c0.211-1.093,2.499-1.578,5.109-1.085C569.135,176.505,571.081,177.791,570.869,178.884z"/>
		<path style="fill:#0C143B;" d="M548.983,177.071c0.216,1.092-1.927,1.357-4.536,1.862c-2.608,0.505-4.694,1.059-4.91-0.033
			c-0.216-1.092,1.723-2.386,4.332-2.891C546.477,175.504,548.767,175.98,548.983,177.071z"/>
		<g>
			<path style="fill:#0C143B;" d="M507.4,361.687c4.387-12.015,8.521-20.897,10.337-24.923c4.192-9.288-0.388-31.026-2.708-40.501
				c-1.379-5.634-2.09-11.427-1.857-17.223c0.898-22.351,13.483-30.65,13.483-30.65c27.452,19.015,70.974,0.023,70.974,0.023
				c10.419,40.648-10.811,50.11,6.869,93.328c3.272,7.999,6.007,16.999,8.304,26.346C586.659,380.743,523.612,382.929,507.4,361.687
				z"/>
		</g>
		<path style="fill:#0C143B;" d="M565.5,187.614c0,1.666-0.812,3.017-1.814,3.017c-1.002,0-1.814-1.351-1.814-3.017
			c0-1.666,0.812-3.017,1.814-3.017C564.688,184.598,565.5,185.948,565.5,187.614z"/>
		<path style="fill:#0C143B;" d="M546.924,187.614c0,1.666-0.812,3.017-1.814,3.017c-1.002,0-1.814-1.351-1.814-3.017
			c0-1.666,0.812-3.017,1.814-3.017C546.112,184.598,546.924,185.948,546.924,187.614z"/>
		<path style="fill:#DDA086;" d="M625.501,402.205c0,0-6.47,0.607-7.112,7.129c-0.642,6.523-6.497,10.486-5.387,13.549
			c0.918,2.531,4.833,0.231,6.846-2.543c1.473-2.031,1.979-5.176,2.419-4.678c0.44,0.498,2.522,4.042,2.611,6.342
			c0.1,2.613-0.397,15.727-0.497,16.323c-0.748,4.458,1.529,4.455,1.529,4.455c3.339,0.583,4.064-8.116,4.297-10.535
			c0.352-3.649,0.485-9.744,0.485-9.744l0.55-0.09c0,0,5.628,18.864,5.931,19.84c0.514,1.657,1.78,1.803,2.279,1.678
			c0.76-0.189,1.703-1.033,1.542-3.278c-0.242-3.39-1.715-15.241-3.3-19.729c0,0,4.208,10.369,6.965,13.828
			c0.915,1.148,2.354,3.023,3.76,2.092c1.604-1.063,0.139-4.112-0.05-4.597c-1.287-3.312-4.7-10.939-6.796-14.038l0.433-0.553
			c0,0,9.169,4.458,11.677,5.934c0.242,0.143,1.425,0.888,2.266-0.013c1.321-1.415-0.18-2.589-0.476-2.844
			c-1.468-1.269-6.228-5.311-9.352-7.149c-1.096-0.645-1.976-1.602-2.457-2.779c-1.13-2.766-3.674-7.729-7.983-9.769
			C629.554,398.135,625.501,402.205,625.501,402.205z"/>
		<path style="fill:#DDA086;" d="M501.176,402.205c0,0,6.47,0.607,7.112,7.129c0.642,6.523,6.497,10.486,5.387,13.549
			c-0.918,2.531-4.833,0.231-6.846-2.543c-1.473-2.031-1.978-5.176-2.419-4.678c-0.44,0.498-2.522,4.042-2.611,6.342
			c-0.1,2.613,0.397,15.727,0.497,16.323c0.749,4.458-1.529,4.455-1.529,4.455c-3.339,0.583-4.064-8.116-4.297-10.535
			c-0.352-3.649-0.485-9.744-0.485-9.744l-0.55-0.09c0,0-5.628,18.864-5.931,19.84c-0.514,1.657-1.78,1.803-2.279,1.678
			c-0.76-0.189-1.703-1.033-1.542-3.278c0.242-3.39,1.715-15.241,3.3-19.729c0,0-4.208,10.369-6.965,13.828
			c-0.915,1.148-2.354,3.023-3.76,2.092c-1.604-1.063-0.139-4.112,0.05-4.597c1.287-3.312,4.7-10.939,6.796-14.038l-0.433-0.553
			c0,0-9.169,4.458-11.677,5.934c-0.242,0.143-1.425,0.888-2.266-0.013c-1.321-1.415,0.18-2.589,0.475-2.844
			c1.468-1.269,6.228-5.311,9.352-7.149c1.096-0.645,1.976-1.602,2.457-2.779c1.13-2.766,3.674-7.729,7.983-9.769
			C497.123,398.135,501.176,402.205,501.176,402.205z"/>
		<g>
			<path style="fill:#4B1612;" d="M549.01,199.986c0,0,6.691,3.434,13.395,0c0,0,0.857,6.787-6.053,7.266
				C548.38,207.804,549.01,199.986,549.01,199.986z"/>
			<g>
				<defs>
					<path id="SVGID_00000054953723018176736990000001864793574168547493_" d="M549.01,199.986c0,0,6.691,3.434,13.395,0
						c0,0,0.857,6.787-6.053,7.266C548.38,207.804,549.01,199.986,549.01,199.986z"/>
				</defs>
				<clipPath id="SVGID_00000031179948621347839990000015449895547778849668_">
					<use xlink:href="#SVGID_00000054953723018176736990000001864793574168547493_"  style="overflow:visible;"/>
				</clipPath>
				<path style="clip-path:url(#SVGID_00000031179948621347839990000015449895547778849668_);fill:#6D2D25;" d="M550.52,207.784
					c0,0,0.958-3.264,5.534-3.086c4.576,0.177,6.385,3.334,6.385,3.334S556.408,213.175,550.52,207.784z"/>
				<path style="clip-path:url(#SVGID_00000031179948621347839990000015449895547778849668_);fill:#FFFFFF;" d="M561.333,199.986
					c0,0,0.284,2.737-5.782,2.723c-6.066-0.014-5.285-3.1-5.285-3.1L561.333,199.986z"/>
			</g>
		</g>
		<path style="fill:#AA3925;" d="M554.398,209.843c0,0.264,0.512,0.479,1.144,0.479c0.632,0,1.144-0.215,1.144-0.479
			c0-0.265-0.512-0.479-1.144-0.479C554.91,209.364,554.398,209.578,554.398,209.843z"/>
		<path style="fill:#0C143B;" d="M560.101,153.776c0,0,4.426,19.852-24.784,20.396c0,0-3.906,2.638-3.009,16.46
			c0,0-16.442-47.589,29.091-45.829c0,0,29.345-0.635,28.465,38.042c0,0-7.214,2.417-7.742,9.11
			C582.123,191.954,587.349,150.347,560.101,153.776z"/>
		<path style="fill:#0C143B;" d="M597.629,248.414c0,0,13.352-6.481,23.733,9.003c0,0,3.167,11.745-13.725,9.568
			c0,0,0.528,15.837-15.111,10.03L597.629,248.414z"/>
		<path style="fill:#0C143B;" d="M526.665,248.414c0,0-13.352-6.481-23.733,9.003c0,0-3.167,11.745,13.725,9.568
			c0,0-0.528,15.837,15.111,10.03L526.665,248.414z"/>
		<g>
			<path style="fill:#0B1127;" d="M604.498,341.741c-3.119-7.625-5.023-14.196-6.108-20.076
				c-7.808,10.931-21.79,16.874-33.672,21.767c-16.351,6.289-34.397,6.622-50.417,1.018c-1.959,4.503-4.387,10.352-6.901,17.236
				c16.212,21.241,79.259,19.056,105.402,6.4C610.505,358.74,607.771,349.74,604.498,341.741z"/>
		</g>
	</g>
	<path style="fill:#0C143B;" d="M80.98,449.241H669.02c1.423,0,2.576-1.153,2.576-2.576l0,0c0-1.423-1.153-2.576-2.576-2.576H80.98
		c-1.423,0-2.576,1.153-2.576,2.576l0,0C78.404,448.088,79.557,449.241,80.98,449.241z"/>
	<g>
		<polygon style="fill:#26415C;" points="528.802,113.655 417.069,111.712 423.5,78.203 		"/>
		<polygon style="fill:#D3E7EB;" points="528.802,113.655 390.259,105.194 420.929,81.575 		"/>
		<polygon style="fill:#D3E7EB;" points="423.5,78.203 528.802,113.655 445.958,63.948 		"/>
	</g>
	<g>
		
			<rect x="433.704" y="184.691" transform="matrix(0.9803 0.1974 -0.1974 0.9803 49.4678 -88.2694)" style="fill:#26415C;" width="67.429" height="38.526"/>
		<polygon style="fill:#85ADB2;" points="438.171,178.414 465.204,214.95 504.272,191.726 		"/>
	</g>
	<g>
		<circle style="fill:#85C2C1;" cx="459.161" cy="145.328" r="10.46"/>
		<circle style="fill:#85C2C1;" cx="480.491" cy="139.208" r="4.34"/>
		<circle style="fill:#85C2C1;" cx="125.013" cy="218.944" r="10.263"/>
		<circle style="fill:#85C2C1;" cx="96.688" cy="197.227" r="3.735"/>
		<path style="fill:#85C2C1;" d="M282.983,57.479c0,3.712-3.009,6.721-6.721,6.721c-3.712,0-6.721-3.009-6.721-6.721
			c0-3.712,3.009-6.721,6.721-6.721C279.974,50.759,282.983,53.768,282.983,57.479z"/>
		<path style="fill:#85C2C1;" d="M574.276,81.696c0,1.929-1.564,3.492-3.492,3.492c-1.929,0-3.492-1.564-3.492-3.492
			c0-1.929,1.564-3.493,3.492-3.493C572.712,78.203,574.276,79.767,574.276,81.696z"/>
		
			<ellipse transform="matrix(0.2306 -0.9731 0.9731 0.2306 258.9305 822.6914)" style="fill:#85C2C1;" cx="649.685" cy="247.614" rx="8.512" ry="8.512"/>
		<path style="fill:#85C2C1;" d="M675.305,268.64c0,1.353-1.097,2.45-2.45,2.45c-1.353,0-2.45-1.097-2.45-2.45s1.097-2.45,2.45-2.45
			C674.208,266.19,675.305,267.287,675.305,268.64z"/>
		<path style="fill:#85C2C1;" d="M693.639,187.473c0,2.12-1.719,3.839-3.839,3.839c-2.12,0-3.839-1.719-3.839-3.839
			s1.719-3.839,3.839-3.839C691.92,183.634,693.639,185.353,693.639,187.473z"/>
		<path style="fill:#85C2C1;" d="M286.965,381.839c0,2.199-1.783,3.983-3.983,3.983c-2.2,0-3.983-1.783-3.983-3.983
			c0-2.2,1.783-3.983,3.983-3.983C285.182,377.857,286.965,379.64,286.965,381.839z"/>
		<circle style="fill:#85C2C1;" cx="482.039" cy="256.793" r="5.888"/>
	</g>
</g>
</svg>
