<?xml version="1.0" encoding="utf-8"?>
<svg viewBox="0 0 1035 506" xmlns="http://www.w3.org/2000/svg">
  <defs>
    <style>.cls-1{fill:#e5dbc1;}.cls-1,.cls-10,.cls-11,.cls-12,.cls-13,.cls-14,.cls-15,.cls-16,.cls-18,.cls-19,.cls-2,.cls-20,.cls-21,.cls-24,.cls-3,.cls-4,.cls-5,.cls-6,.cls-7,.cls-8{stroke:#000;}.cls-1,.cls-10,.cls-13,.cls-16,.cls-18,.cls-19,.cls-2,.cls-20,.cls-21,.cls-24,.cls-3,.cls-4,.cls-5,.cls-6,.cls-7,.cls-8{stroke-linejoin:round;}.cls-1,.cls-10,.cls-11,.cls-12,.cls-13,.cls-14,.cls-15,.cls-16,.cls-18,.cls-19,.cls-2,.cls-20,.cls-21,.cls-24,.cls-3,.cls-4,.cls-5,.cls-6,.cls-7,.cls-8,.cls-9{stroke-width:2px;}.cls-2{fill:#fcbc1c;}.cls-16,.cls-24,.cls-3{fill:#4d4d4d;}.cls-23,.cls-24,.cls-3,.cls-4,.cls-5,.cls-9{stroke-linecap:round;}.cls-3,.cls-4{fill-rule:evenodd;}.cls-12,.cls-19,.cls-23,.cls-4,.cls-5,.cls-9{fill:none;}.cls-15,.cls-22,.cls-6{fill:#fff;}.cls-14,.cls-7{fill:#f2f2f2;}.cls-8{fill:#8cd1cf;}.cls-23,.cls-9{stroke:#fff;}.cls-11,.cls-12,.cls-14,.cls-15,.cls-23,.cls-9{stroke-miterlimit:10;}.cls-10{fill:#333;}.cls-11,.cls-13{fill:#e6e6e6;}.cls-17{opacity:0.2;}.cls-18{fill:#6dafac;}.cls-20{fill:#8ad1e2;}.cls-21{fill:#f9761e;}.cls-23{stroke-width:3px;}</style>
  </defs>
  <title>under-construction-illustration</title>
  <g id="Layer_2" data-name="Layer 2" style="" transform="matrix(1, 0, 0, 0.998826, 0, 0.592941)">
    <g id="Illustration">
      <polygon class="cls-1" points="208.15 341.58 213.89 343.13 214.45 328.5 208.15 341.58"/>
      <polygon class="cls-2" points="207.94 367.09 213.89 343.13 208.15 341.58 201.82 367.09 207.94 367.09"/>
      <polygon class="cls-3" points="185.16 367.09 179.63 322.49 172.64 323.44 178.05 367.09 185.16 367.09"/>
      <path class="cls-4" d="M180.06,326l1.84-.25a1.51,1.51,0,0,1,1.66,1.34l2,15.78a1.93,1.93,0,0,1-1.61,2.17"/>
      <line class="cls-5" x1="175.93" y1="350" x2="182.92" y2="349.05"/>
      <polygon class="cls-6" points="211.97 422.62 177.32 422.62 170.29 367.09 219 367.09 211.97 422.62"/>
      <path class="cls-1" d="M195.82,331.71a5.94,5.94,0,0,1-4.89-4.82,16.22,16.22,0,0,1,6.41-16.2s0,6.08,1.58,8.94C201.54,324.3,201,331.33,195.82,331.71Z"/>
      <line class="cls-5" x1="191.6" y1="347.46" x2="199.62" y2="347.46"/>
      <line class="cls-5" x1="191.74" y1="344.36" x2="199.46" y2="344.36"/>
      <path class="cls-1" d="M199.15,367.09a167.25,167.25,0,0,0-1-36.2,4.6,4.6,0,0,1-2.37.82,6.12,6.12,0,0,1-2.3-.9H193a167.38,167.38,0,0,0-1,36.28Z"/>
      <path class="cls-7" d="M195.82,331.71a6.12,6.12,0,0,1-2.3-.9H193a167.87,167.87,0,0,0-1.53,20.64h8.2a166.55,166.55,0,0,0-1.51-20.56A4.6,4.6,0,0,1,195.82,331.71Z"/>
      <polygon class="cls-8" points="211.97 422.62 177.32 422.62 170.29 367.09 219 367.09 211.97 422.62"/>
      <line class="cls-9" x1="208.24" y1="398.99" x2="207.43" y2="404.51"/>
      <line class="cls-9" x1="212.02" y1="373.15" x2="208.99" y2="393.85"/>
      <path class="cls-7" d="M788.64,399.36l-3.47-2.94a24.86,24.86,0,0,0-.07-5.45l3.41-3a2.51,2.51,0,0,0,.64-2.87l-2.52-5.91a2.52,2.52,0,0,0-2.52-1.51l-4.54.37a25.53,25.53,0,0,0-3.89-3.82l.27-4.53a2.52,2.52,0,0,0-1.57-2.48l-6-2.4a2.54,2.54,0,0,0-2.86.71L762.63,369a24.85,24.85,0,0,0-5.45.07l-3-3.41a2.49,2.49,0,0,0-2.86-.64l-5.91,2.52a2.54,2.54,0,0,0-1.52,2.52l.38,4.54a25.07,25.07,0,0,0-3.82,3.89l-4.53-.27a2.52,2.52,0,0,0-2.49,1.57l-2.39,6a2.5,2.5,0,0,0,.71,2.85l3.47,2.94a24.86,24.86,0,0,0,.07,5.45l-3.41,3a2.53,2.53,0,0,0-.65,2.87l2.53,5.91a2.51,2.51,0,0,0,2.52,1.51l4.54-.37a25.08,25.08,0,0,0,3.89,3.82l-.28,4.53a2.51,2.51,0,0,0,1.58,2.48l6,2.39a2.5,2.5,0,0,0,2.85-.7l2.94-3.47a24.86,24.86,0,0,0,5.45-.07l3,3.41a2.51,2.51,0,0,0,2.87.64l5.91-2.52a2.52,2.52,0,0,0,1.51-2.52l-.37-4.54a25,25,0,0,0,3.81-3.89l4.54.27a2.5,2.5,0,0,0,2.48-1.57l2.39-6A2.52,2.52,0,0,0,788.64,399.36Zm-28.46,8.3A13.7,13.7,0,1,1,773.87,394,13.69,13.69,0,0,1,760.18,407.66Z"/>
      <path class="cls-2" d="M788.64,399.36l-3.47-2.94a24.86,24.86,0,0,0-.07-5.45l3.41-3a2.51,2.51,0,0,0,.64-2.87l-2.52-5.91a2.52,2.52,0,0,0-2.52-1.51l-4.54.37a25.53,25.53,0,0,0-3.89-3.82l.27-4.53a2.52,2.52,0,0,0-1.57-2.48l-6-2.4a2.54,2.54,0,0,0-2.86.71L762.63,369a24.85,24.85,0,0,0-5.45.07l-3-3.41a2.49,2.49,0,0,0-2.86-.64l-5.91,2.52a2.54,2.54,0,0,0-1.52,2.52l.38,4.54a25.07,25.07,0,0,0-3.82,3.89l-4.53-.27a2.52,2.52,0,0,0-2.49,1.57l-2.39,6a2.5,2.5,0,0,0,.71,2.85l3.47,2.94a24.86,24.86,0,0,0,.07,5.45l-3.41,3a2.53,2.53,0,0,0-.65,2.87l2.53,5.91a2.51,2.51,0,0,0,2.52,1.51l4.54-.37a25.08,25.08,0,0,0,3.89,3.82l-.28,4.53a2.51,2.51,0,0,0,1.58,2.48l6,2.39a2.5,2.5,0,0,0,2.85-.7l2.94-3.47a24.86,24.86,0,0,0,5.45-.07l3,3.41a2.51,2.51,0,0,0,2.87.64l5.91-2.52a2.52,2.52,0,0,0,1.51-2.52l-.37-4.54a25,25,0,0,0,3.81-3.89l4.54.27a2.5,2.5,0,0,0,2.48-1.57l2.39-6A2.52,2.52,0,0,0,788.64,399.36Zm-28.46,8.3A13.7,13.7,0,1,1,773.87,394,13.69,13.69,0,0,1,760.18,407.66Z"/>
      <path class="cls-7" d="M829.45,408.55l-2.13-1.81a15.12,15.12,0,0,0-.05-3.36l2.1-1.86a1.55,1.55,0,0,0,.4-1.77l-1.56-3.64a1.53,1.53,0,0,0-1.55-.93l-2.79.23a15.22,15.22,0,0,0-2.4-2.35l.17-2.8a1.55,1.55,0,0,0-1-1.53L817,387.26a1.54,1.54,0,0,0-1.75.43l-1.82,2.14a15.65,15.65,0,0,0-3.35,0l-1.87-2.1a1.54,1.54,0,0,0-1.76-.39l-3.64,1.55a1.55,1.55,0,0,0-.94,1.55l.23,2.8a15.68,15.68,0,0,0-2.35,2.4l-2.79-.17a1.55,1.55,0,0,0-1.53,1l-1.48,3.67a1.56,1.56,0,0,0,.44,1.76l2.13,1.81a15.75,15.75,0,0,0,0,3.36l-2.1,1.86a1.56,1.56,0,0,0-.4,1.77l1.56,3.64a1.53,1.53,0,0,0,1.55.93l2.8-.23a15.68,15.68,0,0,0,2.39,2.36l-.16,2.79a1.55,1.55,0,0,0,1,1.53l3.68,1.47a1.54,1.54,0,0,0,1.76-.43l1.81-2.14a15.65,15.65,0,0,0,3.35,0l1.87,2.1a1.54,1.54,0,0,0,1.76.4l3.65-1.56A1.56,1.56,0,0,0,822,420l-.23-2.8a15.68,15.68,0,0,0,2.35-2.4l2.8.17a1.53,1.53,0,0,0,1.52-1l1.48-3.67A1.55,1.55,0,0,0,829.45,408.55Zm-17.53,5.12a8.44,8.44,0,1,1,8.44-8.44A8.44,8.44,0,0,1,811.92,413.67Z"/>
      <path class="cls-2" d="M829.45,408.55l-2.13-1.81a15.12,15.12,0,0,0-.05-3.36l2.1-1.86a1.55,1.55,0,0,0,.4-1.77l-1.56-3.64a1.53,1.53,0,0,0-1.55-.93l-2.79.23a15.22,15.22,0,0,0-2.4-2.35l.17-2.8a1.55,1.55,0,0,0-1-1.53L817,387.26a1.54,1.54,0,0,0-1.75.43l-1.82,2.14a15.65,15.65,0,0,0-3.35,0l-1.87-2.1a1.54,1.54,0,0,0-1.76-.39l-3.64,1.55a1.55,1.55,0,0,0-.94,1.55l.23,2.8a15.68,15.68,0,0,0-2.35,2.4l-2.79-.17a1.55,1.55,0,0,0-1.53,1l-1.48,3.67a1.56,1.56,0,0,0,.44,1.76l2.13,1.81a15.75,15.75,0,0,0,0,3.36l-2.1,1.86a1.56,1.56,0,0,0-.4,1.77l1.56,3.64a1.53,1.53,0,0,0,1.55.93l2.8-.23a15.68,15.68,0,0,0,2.39,2.36l-.16,2.79a1.55,1.55,0,0,0,1,1.53l3.68,1.47a1.54,1.54,0,0,0,1.76-.43l1.81-2.14a15.65,15.65,0,0,0,3.35,0l1.87,2.1a1.54,1.54,0,0,0,1.76.4l3.65-1.56A1.56,1.56,0,0,0,822,420l-.23-2.8a15.68,15.68,0,0,0,2.35-2.4l2.8.17a1.53,1.53,0,0,0,1.52-1l1.48-3.67A1.55,1.55,0,0,0,829.45,408.55Zm-17.53,5.12a8.44,8.44,0,1,1,8.44-8.44A8.44,8.44,0,0,1,811.92,413.67Z"/>
      <path class="cls-10" d="M668,353V153.38a8.4,8.4,0,0,0-8.38-8.38H330.38a8.4,8.4,0,0,0-8.38,8.38V353Z"/>
      <rect class="cls-8" x="334" y="157" width="321" height="181"/>
      <rect class="cls-6" x="334" y="157" width="321" height="7"/>
      <path class="cls-11" d="M668,374.62V353H322v21.62a8.4,8.4,0,0,0,8.38,8.38H659.62A8.4,8.4,0,0,0,668,374.62Z"/>
      <rect class="cls-12" x="334" y="157" width="321" height="182"/>
      <polygon class="cls-13" points="525.73 418 463.81 418 467.7 383 521.84 383 525.73 418"/>
      <path class="cls-7" d="M457.21,418h75.57a1.71,1.71,0,0,1,1.71,1.71V423a0,0,0,0,1,0,0h-79a0,0,0,0,1,0,0v-3.29A1.71,1.71,0,0,1,457.21,418Z"/>
      <line class="cls-9" x1="349.65" y1="192.37" x2="363.94" y2="178.08"/>
      <line class="cls-9" x1="377.3" y1="180.6" x2="384.43" y2="173.47"/>
      <line class="cls-9" x1="345.04" y1="212.86" x2="370.92" y2="186.98"/>
      <path class="cls-14" d="M647.45,409.83c-12.63,0-22.86,4-22.86,8.87,0,1.56,1,3,2.86,4.3h40c1.82-1.27,2.86-2.74,2.86-4.3C670.3,413.8,660.07,409.83,647.45,409.83Z"/>
      <path class="cls-13" d="M357.49,416h211a2.49,2.49,0,0,1,2.49,2.49V423a0,0,0,0,1,0,0H355a0,0,0,0,1,0,0v-4.51A2.49,2.49,0,0,1,357.49,416Z"/>
      <rect class="cls-15" x="365" y="411" width="12" height="5"/>
      <rect class="cls-15" x="383" y="411" width="12" height="5"/>
      <rect class="cls-15" x="400" y="411" width="12" height="5"/>
      <rect class="cls-15" x="417" y="411" width="12" height="5"/>
      <rect class="cls-15" x="493" y="411" width="12" height="5"/>
      <rect class="cls-15" x="510" y="411" width="12" height="5"/>
      <rect class="cls-15" x="527" y="411" width="9" height="5"/>
      <rect class="cls-15" x="542" y="411" width="9" height="5"/>
      <rect class="cls-15" x="556" y="411" width="9" height="5"/>
      <rect class="cls-15" x="434" y="411" width="54" height="5"/>
      <rect class="cls-7" x="1" y="423" width="1033" height="21" rx="4" ry="4"/>
      <rect class="cls-16" x="70" y="444" width="894" height="9"/>
      <g class="cls-17">
        <rect x="70" y="444" width="894" height="4"/>
      </g>
      <rect class="cls-10" x="119" y="453" width="47" height="52"/>
      <rect class="cls-10" x="870" y="453" width="47" height="52"/>
      <g class="cls-17">
        <rect x="119" y="453" width="47" height="9"/>
        <rect x="870" y="453" width="47" height="9"/>
      </g>
      <path class="cls-18" d="M 583.879 226.961 L 581.119 226.041 C 580.795 224.925 580.349 223.849 579.789 222.831 L 581.089 220.231 C 581.398 219.614 581.277 218.868 580.789 218.381 L 577.889 215.481 C 577.402 214.993 576.656 214.872 576.039 215.181 L 573.439 216.481 C 572.418 215.92 571.338 215.474 570.219 215.151 L 569.299 212.391 C 569.083 211.735 568.47 211.291 567.779 211.291 L 563.699 211.291 C 563.008 211.291 562.395 211.735 562.179 212.391 L 561.259 215.151 C 560.14 215.474 559.06 215.92 558.039 216.481 L 555.439 215.181 C 554.822 214.872 554.076 214.993 553.589 215.481 L 550.689 218.381 C 550.201 218.868 550.08 219.614 550.389 220.231 L 551.689 222.831 C 551.129 223.849 550.683 224.925 550.359 226.041 L 547.599 226.961 C 546.947 227.187 546.509 227.801 546.509 228.491 L 546.509 232.591 C 546.508 233.279 546.947 233.892 547.599 234.111 L 550.359 235.031 C 550.682 236.15 551.128 237.23 551.689 238.251 L 550.389 240.841 C 550.076 241.457 550.198 242.205 550.689 242.691 L 553.589 245.601 C 554.081 246.081 554.821 246.201 555.439 245.901 L 558.039 244.601 C 559.06 245.159 560.14 245.602 561.259 245.921 L 562.179 248.691 C 562.398 249.343 563.011 249.782 563.699 249.781 L 567.799 249.781 C 568.487 249.782 569.1 249.343 569.319 248.691 L 570.239 245.921 C 571.358 245.602 572.438 245.159 573.459 244.601 L 576.059 245.901 C 576.677 246.201 577.417 246.081 577.909 245.601 L 580.809 242.691 C 581.3 242.205 581.422 241.457 581.109 240.841 L 579.809 238.251 C 580.37 237.23 580.816 236.15 581.139 235.031 L 583.899 234.111 C 584.554 233.892 584.996 233.281 584.999 232.591 L 584.999 228.491 C 584.991 227.794 584.541 227.179 583.879 226.961 Z M 565.699 236.961 C 560.757 236.961 557.668 231.611 560.139 227.331 C 562.61 223.051 568.788 223.051 571.259 227.331 C 571.824 228.31 572.121 229.421 572.119 230.551 C 572.119 234.095 569.243 236.967 565.699 236.961 Z" style="fill: rgb(255, 184, 5);"/>
      <path class="cls-18" d="M 446.526 288.009 L 443.656 285.839 C 443.722 284.407 443.632 282.972 443.386 281.559 L 445.936 279.049 C 446.537 278.449 446.693 277.535 446.326 276.769 L 444.096 272.229 C 443.719 271.488 442.922 271.058 442.096 271.149 L 438.556 271.619 C 437.588 270.565 436.508 269.619 435.336 268.799 L 435.336 265.209 C 435.334 264.364 434.802 263.612 434.006 263.329 L 429.216 261.659 C 428.41 261.394 427.524 261.666 427.006 262.339 L 424.836 265.189 C 423.404 265.119 421.969 265.207 420.556 265.449 L 418.046 262.909 C 417.446 262.308 416.532 262.152 415.766 262.519 L 411.226 264.749 C 410.485 265.126 410.055 265.923 410.146 266.749 L 410.616 270.299 C 409.56 271.265 408.614 272.345 407.796 273.519 L 404.206 273.519 C 403.359 273.522 402.606 274.059 402.326 274.859 L 400.656 279.659 C 400.391 280.465 400.663 281.351 401.336 281.869 L 404.186 284.039 C 404.116 285.471 404.204 286.906 404.446 288.319 L 401.906 290.829 C 401.305 291.429 401.149 292.343 401.516 293.109 L 403.746 297.639 C 404.12 298.384 404.917 298.818 405.746 298.729 L 409.296 298.249 C 410.261 299.309 411.341 300.258 412.516 301.079 L 412.516 304.669 C 412.519 305.516 413.056 306.269 413.856 306.549 L 418.646 308.179 C 419.45 308.446 420.336 308.178 420.856 307.509 L 423.056 304.659 C 424.488 304.725 425.923 304.635 427.336 304.389 L 429.846 306.939 C 430.446 307.54 431.36 307.696 432.126 307.329 L 436.656 305.099 C 437.401 304.725 437.835 303.928 437.746 303.099 L 437.266 299.559 C 438.323 298.591 439.272 297.512 440.096 296.339 L 443.686 296.339 C 444.531 296.337 445.283 295.805 445.566 295.009 L 447.196 290.219 C 447.463 289.415 447.195 288.529 446.526 288.009 Z M 421.386 292.429 C 415.624 290.485 414.126 283.033 418.69 279.014 C 423.255 274.995 430.458 277.425 431.656 283.387 C 431.931 284.757 431.838 286.176 431.386 287.499 C 429.974 291.611 425.508 293.813 421.386 292.429 Z" style="fill: rgb(255, 184, 5);"/>
      <path class="cls-18" d="M 598.641 196.638 L 596.351 195.878 C 596.085 194.95 595.716 194.054 595.251 193.208 L 596.331 191.058 C 596.583 190.544 596.483 189.926 596.081 189.518 L 593.641 187.108 C 593.233 186.706 592.615 186.606 592.101 186.858 L 589.951 187.938 C 589.105 187.473 588.209 187.104 587.281 186.838 L 586.521 184.548 C 586.34 184.005 585.833 183.639 585.261 183.638 L 581.851 183.638 C 581.279 183.639 580.772 184.005 580.591 184.548 L 579.831 186.838 C 578.902 187.103 578.007 187.472 577.161 187.938 L 575.001 186.858 C 574.49 186.608 573.876 186.708 573.471 187.108 L 571.061 189.518 C 570.651 189.922 570.55 190.545 570.811 191.058 L 571.891 193.208 C 571.426 194.054 571.057 194.95 570.791 195.878 L 568.501 196.638 C 567.956 196.816 567.589 197.325 567.591 197.898 L 567.591 201.308 C 567.589 201.881 567.956 202.39 568.501 202.568 L 570.791 203.328 C 571.057 204.256 571.426 205.152 571.891 205.998 L 570.811 208.158 C 570.551 208.668 570.652 209.287 571.061 209.688 L 573.471 212.098 C 573.876 212.498 574.49 212.598 575.001 212.348 L 577.161 211.268 C 578.007 211.734 578.902 212.103 579.831 212.368 L 580.641 214.638 C 580.819 215.183 581.328 215.55 581.901 215.548 L 585.311 215.548 C 585.884 215.55 586.393 215.183 586.571 214.638 L 587.331 212.348 C 588.259 212.082 589.155 211.713 590.001 211.248 L 592.151 212.328 C 592.665 212.58 593.283 212.48 593.691 212.078 L 596.101 209.668 C 596.501 209.263 596.601 208.649 596.351 208.138 L 595.271 205.978 C 595.736 205.132 596.105 204.236 596.371 203.308 L 598.661 202.548 C 599.204 202.367 599.57 201.86 599.571 201.288 L 599.571 197.878 C 599.559 197.308 599.185 196.809 598.641 196.638 Z M 583.581 204.928 C 579.478 204.928 576.914 200.486 578.965 196.933 C 581.017 193.38 586.145 193.38 588.197 196.933 C 588.666 197.746 588.913 198.669 588.911 199.608 C 588.911 202.562 586.505 204.95 583.551 204.928 L 583.581 204.928 Z" style="fill: rgb(255, 184, 5);"/>
      <path class="cls-18" d="M 410.659 257.271 L 408.659 256.341 C 408.513 255.471 408.271 254.619 407.939 253.801 L 409.139 251.961 C 409.425 251.519 409.396 250.944 409.069 250.531 L 407.129 248.101 C 406.804 247.69 406.252 247.533 405.759 247.711 L 403.689 248.471 C 402.962 247.988 402.184 247.586 401.369 247.271 L 400.909 245.111 C 400.823 244.58 400.394 244.171 399.859 244.111 L 396.759 243.751 C 396.24 243.7 395.744 243.98 395.519 244.451 L 394.589 246.451 C 393.719 246.598 392.867 246.839 392.049 247.171 L 390.199 245.971 C 389.762 245.681 389.187 245.71 388.779 246.041 L 386.349 247.981 C 385.939 248.307 385.782 248.858 385.959 249.351 L 386.719 251.421 C 386.21 252.142 385.78 252.917 385.439 253.731 L 383.279 254.191 C 382.752 254.284 382.346 254.71 382.279 255.241 L 381.929 258.341 C 381.869 258.863 382.152 259.363 382.629 259.581 L 384.629 260.511 C 384.78 261.382 385.024 262.234 385.359 263.051 L 384.159 264.891 C 383.871 265.333 383.899 265.91 384.229 266.321 L 386.169 268.751 C 386.493 269.165 387.047 269.322 387.539 269.141 L 389.599 268.381 C 390.324 268.891 391.102 269.32 391.919 269.661 L 392.379 271.821 C 392.466 272.352 392.895 272.761 393.429 272.821 L 396.519 273.171 C 397.038 273.23 397.536 272.953 397.759 272.481 L 398.699 270.481 C 399.569 270.333 400.421 270.092 401.239 269.761 L 403.079 270.961 C 403.517 271.251 404.092 271.223 404.499 270.891 L 406.939 268.951 C 407.349 268.625 407.503 268.072 407.319 267.581 L 406.569 265.511 C 407.076 264.79 407.502 264.015 407.839 263.201 L 409.999 262.741 C 410.529 262.652 410.936 262.224 410.999 261.691 L 411.349 258.591 C 411.446 258.046 411.163 257.503 410.659 257.271 Z M 396.109 263.271 C 392.385 262.847 390.516 258.55 392.745 255.536 C 394.975 252.522 399.631 253.052 401.126 256.49 C 401.467 257.274 401.596 258.133 401.499 258.981 C 401.196 261.655 398.783 263.576 396.109 263.271 Z" style="fill: rgb(255, 184, 5);"/>
      <path class="cls-18" d="M 390.891 278.26 L 389.521 277.63 C 389.42 277.034 389.256 276.451 389.031 275.89 L 389.851 274.63 C 390.056 274.322 390.036 273.916 389.801 273.63 L 388.481 271.98 C 388.255 271.701 387.877 271.597 387.541 271.72 L 386.131 272.24 C 385.639 271.89 385.109 271.598 384.551 271.37 L 384.231 269.89 C 384.158 269.539 383.867 269.276 383.511 269.24 L 381.401 269 C 381.046 268.96 380.706 269.148 380.551 269.47 L 379.921 270.84 C 379.325 270.945 378.742 271.113 378.181 271.34 L 376.921 270.52 C 376.625 270.296 376.217 270.296 375.921 270.52 L 374.261 271.85 C 373.979 272.073 373.87 272.451 373.991 272.79 L 374.511 274.2 C 374.168 274.696 373.877 275.225 373.641 275.78 L 372.161 276.09 C 371.81 276.162 371.547 276.454 371.511 276.81 L 371.271 278.92 C 371.23 279.277 371.423 279.62 371.751 279.77 L 373.111 280.41 C 373.215 281.003 373.382 281.583 373.611 282.14 L 372.791 283.4 C 372.575 283.705 372.595 284.118 372.841 284.4 L 374.161 286.07 C 374.386 286.348 374.764 286.452 375.101 286.33 L 376.511 285.81 C 377.004 286.159 377.534 286.454 378.091 286.69 L 378.401 288.16 C 378.479 288.507 378.767 288.767 379.121 288.81 L 381.241 289.05 C 381.593 289.094 381.934 288.904 382.081 288.58 L 382.721 287.21 C 383.313 287.109 383.893 286.945 384.451 286.72 L 385.711 287.54 C 386.02 287.739 386.422 287.719 386.711 287.49 L 388.371 286.16 C 388.653 285.941 388.758 285.563 388.631 285.23 L 388.121 283.81 C 388.465 283.318 388.757 282.792 388.991 282.24 L 390.461 281.92 C 390.814 281.848 391.08 281.557 391.121 281.2 L 391.361 279.09 C 391.394 278.742 391.207 278.41 390.891 278.26 Z M 380.961 282.35 C 378.413 282.064 377.131 279.127 378.652 277.064 C 380.174 275.001 383.358 275.359 384.384 277.708 C 384.619 278.246 384.708 278.836 384.641 279.42 C 384.432 281.244 382.785 282.555 380.961 282.35 Z" style="fill: rgb(255, 184, 5);"/>
      <rect class="cls-19" x="715" y="296" width="33" height="33"/>
      <line class="cls-19" x1="715" y1="296" x2="748" y2="329"/>
      <line class="cls-19" x1="748" y1="296" x2="715" y2="329"/>
      <rect class="cls-19" x="715" y="263" width="33" height="33"/>
      <line class="cls-19" x1="715" y1="263" x2="748" y2="296"/>
      <line class="cls-19" x1="748" y1="263" x2="715" y2="296"/>
      <rect class="cls-19" x="715" y="230" width="33" height="33"/>
      <line class="cls-19" x1="715" y1="230" x2="748" y2="263"/>
      <line class="cls-19" x1="748" y1="230" x2="715" y2="263"/>
      <rect class="cls-19" x="715" y="197" width="33" height="33"/>
      <line class="cls-19" x1="715" y1="197" x2="748" y2="230"/>
      <line class="cls-19" x1="748" y1="197" x2="715" y2="230"/>
      <rect class="cls-19" x="715" y="164" width="33" height="33"/>
      <line class="cls-19" x1="715" y1="164" x2="748" y2="197"/>
      <line class="cls-19" x1="748" y1="164" x2="715" y2="197"/>
      <rect class="cls-19" x="715" y="131" width="33" height="33"/>
      <line class="cls-19" x1="715" y1="131" x2="748" y2="164"/>
      <line class="cls-19" x1="748" y1="131" x2="715" y2="164"/>
      <rect class="cls-19" x="715" y="98" width="33" height="33"/>
      <line class="cls-19" x1="715" y1="98" x2="748" y2="131"/>
      <line class="cls-19" x1="748" y1="98" x2="715" y2="131"/>
      <rect class="cls-19" x="715" y="65" width="33" height="33"/>
      <polygon class="cls-19" points="748 65 715 65 724 16 739 16 748 65"/>
      <line class="cls-19" x1="715" y1="65" x2="748" y2="98"/>
      <line class="cls-19" x1="748" y1="65" x2="715" y2="98"/>
      <line class="cls-19" x1="715" y1="65" x2="739" y2="16"/>
      <line class="cls-19" x1="748" y1="65" x2="724" y2="16"/>
      <rect class="cls-19" x="715" y="329" width="33" height="33"/>
      <line class="cls-19" x1="715" y1="329" x2="748" y2="362"/>
      <line class="cls-19" x1="748" y1="329" x2="715" y2="362"/>
      <rect class="cls-19" x="715" y="362" width="33" height="33"/>
      <line class="cls-19" x1="715" y1="362" x2="748" y2="395"/>
      <line class="cls-19" x1="748" y1="362" x2="715" y2="395"/>
      <circle class="cls-2" cx="731.5" cy="10.5" r="9.5"/>
      <rect class="cls-19" x="748" y="106" width="85" height="4"/>
      <rect class="cls-19" x="748" y="92" width="85" height="14"/>
      <line class="cls-19" x1="753" y1="92" x2="753" y2="106"/>
      <line class="cls-19" x1="758" y1="92" x2="758" y2="106"/>
      <line class="cls-19" x1="763" y1="92" x2="763" y2="106"/>
      <line class="cls-19" x1="773" y1="92" x2="773" y2="106"/>
      <line class="cls-19" x1="783" y1="92" x2="783" y2="106"/>
      <line class="cls-19" x1="793" y1="92" x2="793" y2="106"/>
      <line class="cls-19" x1="803" y1="92" x2="803" y2="106"/>
      <line class="cls-19" x1="813" y1="92" x2="813" y2="106"/>
      <line class="cls-19" x1="823" y1="92" x2="823" y2="106"/>
      <line class="cls-19" x1="768" y1="92" x2="768" y2="106"/>
      <line class="cls-19" x1="778" y1="92" x2="778" y2="106"/>
      <line class="cls-19" x1="788" y1="92" x2="788" y2="106"/>
      <line class="cls-19" x1="798" y1="92" x2="798" y2="106"/>
      <line class="cls-19" x1="808" y1="92" x2="808" y2="106"/>
      <line class="cls-19" x1="818" y1="92" x2="818" y2="106"/>
      <line class="cls-19" x1="828" y1="92" x2="828" y2="106"/>
      <line class="cls-19" x1="738" y1="3" x2="801" y2="118"/>
      <polygon class="cls-19" points="515 90 495 90 515 70 515 90"/>
      <rect class="cls-19" x="515" y="70" width="20" height="20"/>
      <line class="cls-19" x1="515" y1="70" x2="535" y2="90"/>
      <line class="cls-19" x1="535" y1="70" x2="516" y2="89"/>
      <rect class="cls-19" x="535" y="70" width="20" height="20"/>
      <line class="cls-19" x1="535" y1="70" x2="555" y2="90"/>
      <line class="cls-19" x1="555" y1="70" x2="536" y2="89"/>
      <rect class="cls-19" x="555" y="70" width="20" height="20"/>
      <line class="cls-19" x1="555" y1="70" x2="575" y2="90"/>
      <line class="cls-19" x1="575" y1="70" x2="556" y2="89"/>
      <rect class="cls-19" x="575" y="70" width="20" height="20"/>
      <line class="cls-19" x1="575" y1="70" x2="595" y2="90"/>
      <line class="cls-19" x1="595" y1="70" x2="576" y2="89"/>
      <rect class="cls-19" x="595" y="70" width="20" height="20"/>
      <line class="cls-19" x1="595" y1="70" x2="615" y2="90"/>
      <line class="cls-19" x1="615" y1="70" x2="596" y2="89"/>
      <rect class="cls-19" x="615" y="70" width="20" height="20"/>
      <line class="cls-19" x1="615" y1="70" x2="635" y2="90"/>
      <line class="cls-19" x1="635" y1="70" x2="616" y2="89"/>
      <rect class="cls-19" x="635" y="70" width="20" height="20"/>
      <line class="cls-19" x1="635" y1="70" x2="655" y2="90"/>
      <line class="cls-19" x1="655" y1="70" x2="636" y2="89"/>
      <rect class="cls-19" x="655" y="70" width="20" height="20"/>
      <line class="cls-19" x1="655" y1="70" x2="675" y2="90"/>
      <line class="cls-19" x1="675" y1="70" x2="656" y2="89"/>
      <rect class="cls-19" x="675" y="70" width="20" height="20"/>
      <line class="cls-19" x1="675" y1="70" x2="695" y2="90"/>
      <line class="cls-19" x1="695" y1="70" x2="676" y2="89"/>
      <rect class="cls-19" x="695" y="70" width="20" height="20"/>
      <line class="cls-19" x1="695" y1="70" x2="715" y2="90"/>
      <line class="cls-19" x1="715" y1="70" x2="696" y2="89"/>
      <line class="cls-19" x1="515" y1="90" x2="505" y2="80"/>
      <line class="cls-19" x1="725" y1="4" x2="615" y2="70"/>
      <line class="cls-19" x1="515" y1="70" x2="725" y2="4"/>
      <line class="cls-19" x1="495" y1="90" x2="495" y2="170.336" style=""/>
      <line class="cls-19" x1="495" y1="178.99" x2="495" y2="197.99"/>
      <circle class="cls-2" cx="495" cy="174.584" r="4"/>
      <rect class="cls-7" x="698" y="395" width="67" height="9"/>
      <rect class="cls-17" x="698" y="400" width="67" height="4"/>
      <rect class="cls-7" x="690" y="404" width="83" height="19"/>
      <path class="cls-2" d="M740,146H690a8,8,0,0,1-8-8V112.61a15,15,0,0,1,1.64-6.82l6.28-12.28A15,15,0,0,1,703.44,85H740a4,4,0,0,1,4,4v53A4,4,0,0,1,740,146Z"/>
      <path class="cls-20" d="M689,121h23V92h-8.88A7,7,0,0,0,697,95.6l-6.74,12.13a10,10,0,0,0-1.26,4.86Z"/>
      <path class="cls-20" d="M712,139H692a3,3,0,0,1-3-3V125h23Z"/>
      <rect class="cls-2" x="717" y="91" width="22" height="55"/>
      <rect class="cls-2" x="687" y="146" width="56" height="5"/>
      <rect class="cls-2" x="801" y="110" width="32" height="8"/>
      <line class="cls-9" x1="702.5" y1="99.83" x2="703.7" y2="97.87"/>
      <line class="cls-9" x1="696.34" y1="109.88" x2="700" y2="104"/>
      <rect class="cls-2" x="591" y="250" width="4" height="173" rx="1" ry="1"/>
      <rect class="cls-2" x="616" y="250" width="4" height="173" rx="1" ry="1"/>
      <rect class="cls-2" x="595" y="263" width="21" height="4"/>
      <rect class="cls-17" x="595" y="263" width="3" height="4"/>
      <rect class="cls-17" x="613" y="263" width="3" height="4"/>
      <rect class="cls-2" x="595" y="283" width="21" height="4"/>
      <rect class="cls-17" x="595" y="283" width="3" height="4"/>
      <rect class="cls-17" x="613" y="283" width="3" height="4"/>
      <rect class="cls-2" x="595" y="303" width="21" height="4"/>
      <rect class="cls-17" x="595" y="303" width="3" height="4"/>
      <rect class="cls-17" x="613" y="303" width="3" height="4"/>
      <rect class="cls-2" x="595" y="323" width="21" height="4"/>
      <rect class="cls-17" x="595" y="323" width="3" height="4"/>
      <rect class="cls-17" x="613" y="323" width="3" height="4"/>
      <rect class="cls-2" x="595" y="343" width="21" height="4"/>
      <rect class="cls-17" x="595" y="343" width="3" height="4"/>
      <rect class="cls-17" x="613" y="343" width="3" height="4"/>
      <rect class="cls-2" x="595" y="363" width="21" height="4"/>
      <rect class="cls-17" x="595" y="363" width="3" height="4"/>
      <rect class="cls-17" x="613" y="363" width="3" height="4"/>
      <rect class="cls-2" x="595" y="383" width="21" height="4"/>
      <rect class="cls-17" x="595" y="383" width="3" height="4"/>
      <rect class="cls-17" x="613" y="383" width="3" height="4"/>
      <rect class="cls-2" x="595" y="403" width="21" height="4"/>
      <rect class="cls-17" x="595" y="403" width="3" height="4"/>
      <rect class="cls-17" x="613" y="403" width="3" height="4"/>
      <path class="cls-8" d="M216.13,77.26A73.87,73.87,0,1,0,290,151.13,73.87,73.87,0,0,0,216.13,77.26Zm0,141.73A67.87,67.87,0,1,1,284,151.13,67.87,67.87,0,0,1,216.13,219Z"/>
      <circle class="cls-6" cx="216.13" cy="151.13" r="67.87"/>
      <line class="cls-5" x1="216.13" y1="90.16" x2="216.13" y2="98.05"/>
      <line class="cls-5" x1="185.64" y1="98.33" x2="189.59" y2="105.16"/>
      <line class="cls-5" x1="163.33" y1="120.64" x2="170.16" y2="124.59"/>
      <line class="cls-5" x1="155.16" y1="151.13" x2="163.05" y2="151.13"/>
      <line class="cls-5" x1="163.33" y1="181.61" x2="170.16" y2="177.67"/>
      <line class="cls-5" x1="185.64" y1="203.93" x2="189.59" y2="197.1"/>
      <line class="cls-5" x1="216.13" y1="212.09" x2="216.13" y2="204.21"/>
      <line class="cls-5" x1="246.61" y1="203.93" x2="242.67" y2="197.1"/>
      <line class="cls-5" x1="268.93" y1="181.61" x2="262.1" y2="177.67"/>
      <line class="cls-5" x1="277.09" y1="151.13" x2="269.21" y2="151.13"/>
      <line class="cls-5" x1="268.93" y1="120.64" x2="262.1" y2="124.59"/>
      <line class="cls-5" x1="246.61" y1="98.33" x2="242.67" y2="105.16"/>
      <line class="cls-5" x1="220.09" y1="153.6" x2="251.75" y2="171.91"/>
      <line class="cls-5" x1="216.13" y1="146.45" x2="216.13" y2="105.93"/>
      <line class="cls-5" x1="216.13" y1="164.4" x2="216.13" y2="155.81"/>
      <circle class="cls-13" cx="216.13" cy="151.13" r="4.68"/>
      <line class="cls-5" x1="206.96" y1="146.01" x2="212" y2="148.92"/>
      <rect class="cls-6" x="300" y="399" width="48" height="10"/>
      <rect class="cls-6" x="278" y="364" width="92" height="14"/>
      <polygon class="cls-21" points="297.64 378 288.21 378 294.94 364 304.37 364 297.64 378"/>
      <polygon class="cls-21" points="316.11 378 306.68 378 313.42 364 322.85 364 316.11 378"/>
      <polygon class="cls-21" points="334.58 378 325.15 378 331.89 364 341.32 364 334.58 378"/>
      <polygon class="cls-21" points="353.06 378 343.63 378 350.36 364 359.79 364 353.06 378"/>
      <polygon class="cls-21" points="368.83 364 362.1 378 370 378 370 364 368.83 364"/>
      <polygon class="cls-21" points="278 364 278 378 279.17 378 285.9 364 278 364"/>
      <polygon class="cls-21" points="301.65 409 293.66 409 299.37 399 307.36 399 301.65 409"/>
      <polygon class="cls-21" points="317.31 409 309.32 409 315.03 399 323.02 399 317.31 409"/>
      <polygon class="cls-21" points="332.97 409 324.98 409 330.69 399 338.68 399 332.97 409"/>
      <polygon class="cls-21" points="348.63 409 340.64 409 346.35 399 354.34 399 348.63 409"/>
      <rect class="cls-11" x="290" y="378" width="10" height="45"/>
      <rect class="cls-11" x="348" y="378" width="10" height="45"/>
      <rect class="cls-17" x="290" y="378" width="10" height="5"/>
      <rect class="cls-17" x="348" y="378" width="10" height="5"/>
      <rect class="cls-11" x="293" y="359" width="4" height="5"/>
      <circle class="cls-2" cx="295" cy="353" r="6"/>
      <path class="cls-9" d="M295,350a3,3,0,0,1,3,3"/>
      <rect class="cls-11" x="351" y="359" width="4" height="5"/>
      <circle class="cls-2" cx="353" cy="353" r="6"/>
      <path class="cls-9" d="M353,350a3,3,0,0,1,3,3"/>
      <rect class="cls-17" x="300" y="399" width="4" height="10"/>
      <rect class="cls-17" x="344" y="399" width="4" height="10"/>
      <path class="cls-9" d="M885.3,374.89V364.25a6.94,6.94,0,0,1,6.93-6.94h6.94a6.93,6.93,0,0,0,6.94-6.94h0a6.93,6.93,0,0,0-6.94-6.93H871.64a6.94,6.94,0,0,1-6.94-6.94h0a6.94,6.94,0,0,1,6.94-6.94H903a6.94,6.94,0,0,0,6.94-6.94h0a6.94,6.94,0,0,0-6.94-6.94H882.6a6.94,6.94,0,0,1-6.94-6.94h0a6.94,6.94,0,0,1,6.94-6.94h5.94a6.93,6.93,0,0,0,6.93-6.93V287"/>
      <path class="cls-8" d="M879.43,419.3h12.65a25.18,25.18,0,0,0,20-24.47V376.14a1.26,1.26,0,0,0-1.26-1.25H860.64a1.25,1.25,0,0,0-1.25,1.25v18.69A25.19,25.19,0,0,0,879.43,419.3Z"/>
      <path class="cls-8" d="M923.41,380.06c-3.27-3.11-8.32-2.55-11.28-1.85v4.26c2.24-.68,6.38-1.39,8.44.58,3.12,3,.25,10.19-1.79,12.45a19.4,19.4,0,0,1-7.33,4.83,24.78,24.78,0,0,1-1.72,4.88,24.75,24.75,0,0,0,12.1-6.95C925.08,394.68,928.59,385,923.41,380.06Z"/>
      <path class="cls-9" d="M866,397.43a20.1,20.1,0,0,0,2.62,7.6"/>
      <line class="cls-9" x1="865.87" y1="379.52" x2="865.87" y2="392.47"/>
      <rect class="cls-7" x="849.21" y="419.3" width="73.09" height="3.7"/>
      <path class="cls-22" d="M263.93,274.26H260.3a1.45,1.45,0,0,1-1.45-1.46v-3.62a2.18,2.18,0,1,0-4.35,0v3.62a1.45,1.45,0,0,1-1.45,1.46h-3.63a2.18,2.18,0,1,0,0,4.35h3.63a1.45,1.45,0,0,1,1.45,1.45v3.63a2.18,2.18,0,0,0,4.35,0v-3.63a1.45,1.45,0,0,1,1.45-1.45h3.63a2.18,2.18,0,0,0,0-4.35Z"/>
      <path class="cls-22" d="M589.65,121.06h-4a1.6,1.6,0,0,1-1.6-1.6v-4a2.41,2.41,0,1,0-4.81,0v4a1.6,1.6,0,0,1-1.6,1.6h-4a2.4,2.4,0,1,0,0,4.8h4a1.6,1.6,0,0,1,1.6,1.6v4a2.41,2.41,0,0,0,4.81,0v-4a1.6,1.6,0,0,1,1.6-1.6h4a2.4,2.4,0,0,0,0-4.8Z"/>
      <line class="cls-23" x1="162.44" y1="234.94" x2="162.44" y2="239.74"/>
      <line class="cls-23" x1="162.44" y1="252.54" x2="162.44" y2="257.35"/>
      <line class="cls-23" x1="151.23" y1="246.14" x2="156.03" y2="246.14"/>
      <line class="cls-23" x1="168.84" y1="246.14" x2="173.64" y2="246.14"/>
      <line class="cls-23" x1="899.44" y1="202.94" x2="899.44" y2="207.74"/>
      <line class="cls-23" x1="899.44" y1="220.54" x2="899.44" y2="225.35"/>
      <line class="cls-23" x1="888.23" y1="214.14" x2="893.03" y2="214.14"/>
      <line class="cls-23" x1="905.84" y1="214.14" x2="910.64" y2="214.14"/>
      <line class="cls-23" x1="809.93" y1="263.22" x2="806.55" y2="266.97"/>
      <line class="cls-23" x1="796.15" y1="261.77" x2="798.68" y2="266.15"/>
      <line class="cls-23" x1="790.52" y1="274.43" x2="795.46" y2="273.38"/>
      <line class="cls-23" x1="800.81" y1="283.69" x2="801.34" y2="278.67"/>
      <line class="cls-23" x1="812.8" y1="276.77" x2="808.19" y2="274.72"/>
      <line class="cls-23" x1="475.8" y1="49.48" x2="475.8" y2="54.53"/>
      <line class="cls-23" x1="464.59" y1="57.63" x2="469.39" y2="59.19"/>
      <line class="cls-23" x1="468.87" y1="70.8" x2="471.84" y2="66.71"/>
      <line class="cls-23" x1="482.72" y1="70.8" x2="479.75" y2="66.71"/>
      <line class="cls-23" x1="487" y1="57.63" x2="482.2" y2="59.19"/>
      <path class="cls-23" d="M806.39,175.33A11.61,11.61,0,1,1,818,163.72"/>
      <path class="cls-23" d="M341.79,91.12a8,8,0,1,1,8-8"/>
      <path class="cls-22" d="M958.55,297.33h0a7.68,7.68,0,0,1-5.74-5.73h0a2.21,2.21,0,0,0-4.31,0h0a7.68,7.68,0,0,1-5.73,5.73h0a2.21,2.21,0,0,0,0,4.31h0a7.68,7.68,0,0,1,5.73,5.74h0a2.21,2.21,0,0,0,4.31,0h0a7.67,7.67,0,0,1,5.74-5.74h0A2.21,2.21,0,0,0,958.55,297.33Z"/>
      <path class="cls-22" d="M137.72,363.61h0a7.67,7.67,0,0,1,.08-8.11h0a2.21,2.21,0,0,0-3-3.07h0a7.67,7.67,0,0,1-8.11-.07h0a2.21,2.21,0,0,0-3.07,3h0a7.7,7.7,0,0,1-.07,8.11h0a2.21,2.21,0,0,0,3,3.07h0a7.67,7.67,0,0,1,8.11.08h0A2.21,2.21,0,0,0,137.72,363.61Z"/>
      <polygon class="cls-21" points="183 417 158 417 164 373 177 373 183 417"/>
      <rect class="cls-24" x="150" y="417" width="41" height="6"/>
      <polygon class="cls-15" points="159.91 403 181.09 403 178.91 387 162.09 387 159.91 403"/>
    </g>
  </g>
  <g transform="matrix(0.01518, 0, 0, -0.014995, 439.31138, 301.255469)" fill="#000000" stroke="none" style="">
    <path d="M3405 6859 c-800 -47 -1513 -328 -2125 -837 -105 -87 -325 -308 -424 -427 -418 -499 -671 -1075 -761 -1730 -22 -161 -30 -501 -16 -680 98 -1212 840 -2274 1966 -2811 433 -206 845 -310 1377 -345 200 -14 411 -5 662 27 683 87 1345 382 1871 834 117 101 339 330 439 453 102 126 264 371 343 517 310 573 448 1244 387 1881 -63 671 -307 1272 -732 1806 -112 140 -387 416 -527 527 -328 261 -757 493 -1140 615 -206 67 -478 126 -690 150 -98 12 -417 32 -462 30 -15 -1 -91 -6 -168 -10z m465 -71 c857 -69 1624 -416 2215 -1003 278 -275 478 -553 649 -900 245 -497 346 -961 333 -1529 -9 -407 -75 -733 -224 -1111 -270 -684 -773 -1270 -1419 -1655 -443 -264 -885 -411 -1444 -482 -158 -19 -621 -17 -786 5 -436 57 -769 154 -1131 327 -1000 479 -1707 1403 -1882 2460 -34 206 -44 324 -43 550 0 655 184 1261 547 1805 574 861 1535 1433 2565 1524 69 6 139 13 155 14 60 7 362 4 465 -5z" style="fill: rgb(255, 255, 255);"/>
    <path d="M3402 6358 l3 -163 47 -3 47 -3 3 68 3 68 55 0 55 0 3 -67 3 -68 50 0 51 0 -4 165 -3 165 -47 0 -47 0 -3 -57 -3 -58 -57 -3 -58 -3 0 61 0 60 -50 0 -50 0 2 -162z" style="fill: rgb(255, 255, 255);"/>
    <path d="M3862 6480 c-68 -42 -95 -173 -49 -240 34 -51 80 -73 151 -74 104 -2 159 56 160 169 1 75 -23 118 -79 145 -55 27 -139 27 -183 0z m143 -72 c25 -19 27 -26 23 -74 -6 -65 -28 -94 -73 -94 -51 0 -69 31 -66 113 1 32 41 77 69 77 11 0 32 -10 47 -22z" style="fill: rgb(255, 255, 255);"/>
    <path d="M2850 6438 c-49 -8 -83 -30 -113 -70 -28 -37 -25 -126 5 -180 35 -63 69 -83 136 -82 69 1 116 23 142 67 31 50 27 75 -14 83 -40 7 -56 0 -56 -25 0 -25 -32 -51 -63 -51 -34 0 -64 40 -73 96 -5 39 -3 49 17 70 26 28 55 31 86 9 20 -14 25 -14 57 2 20 9 36 20 36 23 0 4 -11 17 -24 29 -31 29 -79 39 -136 29z" style="fill: rgb(255, 255, 255);"/>
    <path d="M4270 6433 c-33 -12 -60 -47 -60 -78 0 -42 29 -78 90 -111 53 -29 67 -49 49 -70 -25 -30 -89 -3 -89 38 0 15 -38 28 -81 28 -16 0 -18 -5 -13 -27 3 -16 10 -38 16 -50 17 -34 91 -66 154 -67 48 0 58 3 85 30 22 23 31 41 32 67 1 45 -26 77 -100 119 -55 31 -66 52 -33 63 26 8 60 -11 60 -34 0 -17 34 -31 76 -31 23 0 16 54 -10 79 -38 36 -133 59 -176 44z" style="fill: rgb(255, 255, 255);"/>
    <path d="M2543 6348 c-18 -6 -33 -15 -33 -20 0 -5 23 -75 50 -156 28 -80 50 -147 50 -148 0 -1 20 6 45 15 25 9 45 19 45 22 0 8 -75 228 -92 272 -11 29 -16 30 -65 15z" style="fill: rgb(255, 255, 255);"/>
    <path d="M4580 6357 c0 -2 -24 -70 -54 -151 l-54 -148 34 -14 c50 -21 61 -18 75 24 23 71 25 73 64 56 42 -17 104 -18 126 -1 21 16 49 71 49 96 0 38 -51 79 -138 111 -78 28 -102 34 -102 27z m128 -109 c32 -27 1 -73 -42 -62 -34 8 -38 16 -25 53 9 26 15 30 33 25 11 -3 27 -11 34 -16z" style="fill: rgb(255, 255, 255);"/>
    <path d="M2242 6228 c-28 -12 -42 -24 -39 -33 9 -23 121 -280 123 -284 4 -4 216 87 227 98 6 6 -3 41 -19 69 0 1 -34 -12 -74 -28 -39 -17 -73 -30 -75 -28 -1 2 -24 52 -49 113 -26 60 -48 110 -49 111 -1 0 -21 -8 -45 -18z" style="fill: rgb(255, 255, 255);"/>
    <path d="M4892 6183 c-11 -27 -40 -92 -66 -145 l-45 -98 41 -21 c22 -11 44 -17 48 -12 11 10 130 269 130 281 0 8 -63 42 -79 42 -5 0 -17 -21 -29 -47z" style="fill: rgb(255, 255, 255);"/>
    <path d="M5059 6133 c-7 -16 -15 -31 -17 -34 -1 -4 17 -18 42 -33 l44 -26 -59 -102 c-32 -57 -59 -106 -59 -110 0 -11 69 -50 79 -43 6 3 35 51 66 105 31 55 58 100 61 100 2 0 23 -12 45 -26 23 -14 42 -24 43 -22 29 45 36 61 29 68 -8 8 -252 150 -257 150 -2 0 -9 -12 -17 -27z" style="fill: rgb(255, 255, 255);"/>
    <path d="M1953 6077 c-51 -29 -93 -55 -93 -59 0 -12 154 -278 162 -278 11 0 162 91 187 114 35 32 43 61 26 102 -14 34 -55 60 -80 50 -9 -3 -11 8 -8 39 4 34 1 47 -16 64 -34 34 -75 26 -178 -32z m101 -33 c27 -10 19 -48 -15 -68 -29 -17 -31 -17 -44 1 -21 27 -18 41 13 57 33 18 27 17 46 10z m90 -119 c8 -22 -1 -39 -33 -58 -39 -23 -46 -22 -59 8 -16 34 -16 32 16 49 35 20 68 20 76 1z" style="fill: rgb(255, 255, 255);"/>
    <path d="M3435 5970 c-1154 -76 -2121 -881 -2379 -1980 -81 -342 -86 -725 -16 -1073 202 -993 1002 -1786 2015 -1998 602 -125 1215 -45 1760 230 258 131 461 277 666 481 393 391 640 879 725 1435 28 178 26 550 -4 732 -174 1074 -985 1908 -2067 2128 -197 40 -488 59 -700 45z m558 -90 c454 -68 875 -250 1237 -536 195 -154 430 -419 570 -644 183 -292 315 -681 350 -1033 16 -152 8 -487 -15 -627 -127 -793 -635 -1475 -1373 -1844 -227 -113 -517 -203 -787 -243 -168 -25 -573 -25 -735 0 -457 71 -894 259 -1245 537 -110 87 -292 267 -380 375 -312 386 -491 811 -545 1295 -14 124 -14 398 0 525 49 440 220 862 499 1230 89 118 312 344 429 435 404 314 872 500 1383 550 145 14 453 4 612 -20z" style="fill: rgb(255, 255, 255);"/>
    <path d="M3525 5081 c-82 -51 -113 -149 -77 -242 13 -32 75 -87 108 -95 38 -10 104 2 133 24 111 82 97 258 -26 321 -33 17 -104 13 -138 -8z" style="fill: rgb(255, 255, 255);"/>
    <path d="M2971 4930 c-63 -13 -241 -83 -241 -94 0 -6 12 -23 27 -38 25 -26 32 -28 105 -28 59 0 89 5 117 20 48 24 57 16 67 -58 6 -44 12 -58 43 -82 25 -21 46 -30 71 -30 33 0 46 -10 131 -95 92 -93 113 -108 154 -109 28 -1 33 -42 6 -51 -25 -8 -93 -83 -89 -97 15 -44 80 -31 115 21 25 37 31 107 12 144 -6 12 -57 68 -112 125 l-102 102 2 91 c2 91 2 92 -29 121 -17 16 -45 36 -62 45 -37 19 -152 26 -215 13z" style="fill: rgb(255, 255, 255);"/>
    <path d="M4048 4931 c-41 -14 -97 -50 -108 -71 -6 -10 -10 -58 -10 -106 l0 -86 -79 -82 c-151 -155 -141 -140 -141 -213 0 -76 23 -118 71 -128 29 -7 59 7 59 26 0 15 -70 88 -91 94 -14 5 -19 14 -17 28 2 17 10 22 37 24 29 1 49 17 133 102 90 92 103 101 136 101 27 0 48 9 74 30 31 25 37 37 43 85 8 66 19 73 75 51 24 -9 70 -16 112 -16 64 0 75 3 100 27 15 15 28 31 28 35 0 10 -67 40 -165 75 -76 26 -211 39 -257 24z" style="fill: rgb(255, 255, 255);"/>
    <path d="M2540 4749 c-63 -38 -157 -93 -207 -122 -51 -28 -92 -56 -90 -60 4 -13 120 -58 139 -53 20 5 367 206 374 217 2 4 -5 13 -16 19 -17 9 -37 2 -122 -45 -55 -30 -105 -55 -109 -55 -22 0 -2 20 82 79 81 57 101 80 73 87 -5 1 -61 -29 -124 -67z" style="fill: rgb(255, 255, 255);"/>
    <path d="M4530 4810 c-19 -12 -6 -25 93 -92 50 -34 86 -63 80 -65 -12 -4 -141 57 -185 89 -30 21 -68 17 -68 -7 0 -8 51 -43 113 -78 61 -35 146 -83 186 -107 72 -41 77 -42 110 -30 68 25 101 40 101 48 0 4 -17 16 -38 28 -43 24 -327 190 -358 209 -12 8 -26 10 -34 5z" style="fill: rgb(255, 255, 255);"/>
    <path d="M2865 4658 c-107 -74 -175 -113 -175 -100 0 9 10 18 98 86 63 49 78 73 42 63 -32 -8 -369 -211 -369 -222 -1 -15 166 -78 182 -68 7 4 88 66 180 137 132 102 167 134 167 153 0 12 -6 23 -12 22 -7 -1 -58 -32 -113 -71z" style="fill: rgb(255, 255, 255);"/>
    <path d="M4217 4723 c-25 -24 24 -69 315 -286 l38 -29 85 34 c47 18 85 38 85 43 0 6 -31 27 -68 49 -37 21 -117 70 -178 107 -105 65 -144 81 -144 60 0 -5 34 -35 76 -67 95 -73 118 -108 42 -63 -29 17 -95 60 -147 95 -103 71 -95 67 -104 57z" style="fill: rgb(255, 255, 255);"/>
    <path d="M3557 4684 c-4 -4 -7 -265 -7 -580 l0 -573 30 -16 c23 -12 35 -13 50 -5 20 11 20 20 18 593 l-3 582 -40 3 c-23 2 -44 0 -48 -4z" style="fill: rgb(255, 255, 255);"/>
    <path d="M2920 4548 c-47 -39 -100 -83 -119 -98 -28 -24 -32 -32 -26 -58 5 -27 11 -31 43 -34 54 -5 78 11 176 117 l88 96 -23 25 c-12 13 -30 24 -38 23 -9 0 -54 -32 -101 -71z" style="fill: rgb(255, 255, 255);"/>
    <path d="M4146 4599 c-15 -12 -26 -25 -24 -29 6 -17 197 -209 210 -211 7 -1 29 -1 49 0 31 1 38 5 43 26 4 14 3 32 -1 40 -10 18 -229 195 -241 195 -5 0 -21 -9 -36 -21z" style="fill: rgb(255, 255, 255);"/>
    <path d="M3062 4458 c-97 -95 -103 -103 -100 -137 3 -35 4 -36 46 -39 43 -3 45 -2 143 94 54 54 99 103 99 109 0 13 -62 75 -75 75 -6 0 -56 -46 -113 -102z" style="fill: rgb(255, 255, 255);"/>
    <path d="M3982 4527 c-17 -18 -32 -38 -32 -43 0 -6 45 -54 99 -108 98 -96 100 -97 143 -94 42 3 43 4 46 41 3 36 -1 42 -98 135 -56 53 -107 98 -114 100 -6 1 -26 -12 -44 -31z" style="fill: rgb(255, 255, 255);"/>
    <path d="M2105 4510 c-38 -16 -124 -50 -190 -75 -66 -26 -124 -50 -128 -54 -5 -5 16 -21 45 -36 29 -15 72 -39 96 -52 29 -17 46 -22 55 -15 6 5 82 42 167 81 205 96 200 93 200 102 0 5 -18 13 -39 20 -36 11 -46 9 -113 -19 -121 -50 -218 -80 -218 -67 0 5 132 79 178 99 23 11 42 25 42 33 0 19 -16 16 -95 -17z" style="fill: rgb(255, 255, 255);"/>
    <path d="M5000 4527 c0 -7 40 -32 88 -56 90 -44 146 -80 126 -81 -17 0 -119 34 -209 70 -71 28 -84 31 -117 20 -41 -12 -49 -27 -20 -37 9 -4 91 -42 181 -85 90 -43 172 -78 182 -78 25 0 190 93 181 102 -9 8 -390 158 -403 158 -5 0 -9 -6 -9 -13z" style="fill: rgb(255, 255, 255);"/>
    <path d="M2294 4381 c-61 -31 -156 -78 -212 -105 -56 -27 -102 -51 -102 -55 0 -8 169 -94 184 -94 19 0 406 234 401 243 -2 4 -18 13 -33 19 -27 11 -36 8 -108 -31 -112 -62 -213 -108 -218 -100 -2 4 49 43 115 86 66 42 117 82 114 87 -9 14 -23 9 -141 -50z" style="fill: rgb(255, 255, 255);"/>
    <path d="M4770 4426 c0 -7 28 -30 63 -52 85 -52 183 -124 170 -124 -17 0 -138 57 -227 107 l-79 45 -35 -16 c-19 -10 -31 -21 -26 -25 19 -17 390 -234 400 -234 17 0 184 87 184 96 0 4 -28 21 -62 36 -35 16 -134 63 -220 105 -87 42 -160 76 -163 76 -3 0 -5 -6 -5 -14z" style="fill: rgb(255, 255, 255);"/>
    <path d="M3237 4364 c-26 -31 -47 -62 -47 -68 0 -22 24 -36 61 -36 31 0 41 6 73 47 20 25 36 52 36 58 0 16 -43 55 -61 55 -8 0 -36 -25 -62 -56z" style="fill: rgb(255, 255, 255);"/>
    <path d="M3858 4394 l-26 -27 40 -54 c40 -53 42 -54 87 -51 39 3 46 6 49 26 4 27 -81 132 -107 132 -9 0 -28 -12 -43 -26z" style="fill: rgb(255, 255, 255);"/>
    <path d="M2690 4386 c-14 -13 -192 -128 -392 -253 -49 -30 -88 -58 -88 -62 0 -12 219 -113 233 -108 6 3 75 61 153 129 77 68 161 141 187 162 50 41 53 61 8 51 -33 -7 -50 10 -60 57 -8 36 -20 44 -41 24z" style="fill: rgb(255, 255, 255);"/>
    <path d="M4477 4393 c-4 -3 -7 -18 -7 -32 0 -40 -14 -53 -56 -54 -22 -1 -39 -5 -39 -9 0 -5 23 -27 51 -50 28 -24 114 -98 192 -165 77 -68 145 -123 150 -123 5 0 47 19 93 41 46 23 94 45 107 50 12 5 22 12 22 17 0 5 -37 33 -82 61 -148 93 -211 134 -316 203 -113 75 -106 71 -115 61z" style="fill: rgb(255, 255, 255);"/>
    <path d="M2745 4149 c-243 -212 -245 -214 -245 -252 0 -31 3 -35 43 -46 23 -7 56 -17 73 -22 17 -5 35 -9 40 -9 5 0 48 44 94 97 47 54 124 141 173 194 48 53 87 100 87 103 0 3 -17 6 -38 6 -41 0 -62 14 -62 42 0 10 -3 18 -7 18 -5 0 -75 -59 -158 -131z" style="fill: rgb(255, 255, 255);"/>
    <path d="M4290 4256 c0 -27 -11 -32 -75 -38 l-30 -3 55 -61 c30 -33 109 -122 175 -198 95 -109 124 -136 140 -132 141 35 145 37 145 79 0 30 -16 47 -195 203 -108 93 -200 171 -205 172 -6 2 -10 -8 -10 -22z" style="fill: rgb(255, 255, 255);"/>
    <path d="M3095 4223 c-36 -44 -290 -336 -338 -390 -11 -13 -18 -25 -15 -28 5 -5 120 -42 164 -52 18 -4 30 6 62 54 23 32 59 81 80 108 118 152 213 285 208 293 -3 5 -18 7 -34 4 -38 -5 -72 13 -72 38 0 30 -12 24 -55 -27z" style="fill: rgb(255, 255, 255);"/>
    <path d="M4044 4245 c-6 -25 -34 -39 -70 -35 -11 1 -24 2 -31 1 -7 0 50 -85 127 -188 178 -240 209 -276 229 -270 9 3 47 15 85 26 38 11 71 23 73 25 6 6 5 7 -222 269 -93 109 -173 197 -177 197 -4 0 -10 -11 -14 -25z" style="fill: rgb(255, 255, 255);"/>
    <path d="M3323 4188 c-27 -30 -133 -175 -133 -182 0 -4 29 -6 65 -6 l65 0 31 62 c17 34 42 79 55 99 12 20 20 40 17 43 -16 16 -80 5 -100 -16z" style="fill: rgb(255, 255, 255);"/>
    <path d="M3780 4199 c0 -6 23 -54 52 -105 l52 -94 63 0 c35 0 63 3 63 8 0 4 -33 50 -73 102 -69 91 -74 95 -115 98 -27 2 -42 -1 -42 -9z" style="fill: rgb(255, 255, 255);"/>
    <path d="M3415 4067 c-14 -24 -25 -49 -25 -55 0 -11 81 -18 91 -8 2 2 2 27 1 55 -5 67 -30 70 -67 8z" style="fill: rgb(255, 255, 255);"/>
    <path d="M3720 4055 l0 -55 45 0 c25 0 45 5 45 11 0 25 -53 99 -71 99 -16 0 -19 -8 -19 -55z" style="fill: rgb(255, 255, 255);"/>
    <path d="M3203 3935 c-137 -38 -234 -139 -234 -243 -1 -160 136 -254 485 -332 372 -82 490 -156 431 -269 -20 -40 -116 -125 -170 -151 -25 -12 -45 -25 -44 -28 0 -8 152 -82 167 -82 6 0 38 25 71 56 71 65 131 175 139 252 7 78 -36 144 -133 204 -60 37 -243 103 -385 139 -273 68 -388 118 -419 184 -11 24 -12 37 -2 75 7 25 20 54 31 64 18 19 20 19 74 2 77 -25 157 -15 228 28 63 37 68 61 19 90 -45 26 -183 32 -258 11z" style="fill: rgb(255, 255, 255);"/>
    <path d="M3776 3936 c-22 -8 -49 -24 -60 -36 l-21 -21 25 -19 c59 -46 113 -65 185 -64 44 0 81 6 99 16 36 20 51 15 69 -25 44 -96 24 -151 -74 -205 -40 -22 -202 -76 -261 -87 -47 -9 -49 -21 -5 -30 17 -4 62 -21 99 -37 63 -29 71 -30 115 -18 105 26 220 107 258 181 9 17 19 55 22 84 10 94 -51 181 -172 242 -41 21 -67 27 -145 30 -67 2 -107 -1 -134 -11z" style="fill: rgb(255, 255, 255);"/>
    <path d="M3275 3338 c-112 -61 -152 -200 -91 -317 38 -74 120 -158 186 -191 30 -15 102 -42 160 -60 199 -62 240 -94 240 -191 0 -55 -2 -61 -40 -99 -22 -22 -47 -40 -55 -40 -23 0 -18 -28 8 -36 12 -3 34 -15 49 -25 37 -26 47 -24 100 21 118 102 121 266 6 364 -38 33 -70 50 -340 180 -168 81 -221 150 -184 239 16 39 85 91 137 102 40 9 45 23 12 31 -15 3 -54 12 -86 20 -69 17 -76 17 -102 2z" style="fill: rgb(255, 255, 255);"/>
    <path d="M3555 3270 c-7 -12 -5 -243 2 -283 7 -32 58 -66 76 -48 6 6 12 77 15 167 3 124 1 158 -10 165 -18 12 -75 11 -83 -1z" style="fill: rgb(255, 255, 255);"/>
    <path d="M3339 2742 c-43 -49 -59 -91 -59 -158 0 -117 61 -184 248 -276 116 -57 182 -108 182 -142 0 -24 -36 -87 -56 -99 -8 -4 -14 -14 -14 -21 0 -14 41 -56 56 -56 13 0 99 89 113 117 17 34 13 103 -10 150 -24 51 -67 82 -194 144 -98 48 -169 108 -180 152 -11 43 13 104 54 138 19 15 32 32 28 35 -4 4 -36 18 -72 30 l-64 23 -32 -37z" style="fill: rgb(255, 255, 255);"/>
    <path d="M3568 2693 c-2 -5 -2 -59 0 -120 3 -95 6 -114 21 -122 9 -5 22 -7 28 -3 15 10 25 223 11 239 -11 14 -55 18 -60 6z" style="fill: rgb(255, 255, 255);"/>
    <path d="M3421 2287 c-19 -24 -41 -86 -41 -117 0 -67 40 -116 199 -243 100 -80 120 -137 69 -193 -11 -12 -16 -28 -12 -37 11 -29 43 -19 74 24 66 92 47 155 -84 275 -85 76 -136 143 -136 177 0 9 13 31 30 50 l29 34 -52 21 c-62 26 -61 26 -76 9z" style="fill: rgb(255, 255, 255);"/>
    <path d="M3582 2153 c3 -65 6 -78 21 -81 16 -3 18 4 15 75 -3 65 -6 78 -21 81 -16 3 -18 -4 -15 -75z" style="fill: rgb(255, 255, 255);"/>
    <path d="M3481 1905 c-41 -53 -35 -135 15 -194 30 -37 184 -154 192 -147 8 9 -27 57 -89 121 -77 81 -86 105 -58 162 20 42 21 45 4 63 -24 27 -40 25 -64 -5z" style="fill: rgb(255, 255, 255);"/>
    <path d="M3590 1801 c0 -33 5 -63 10 -66 6 -4 10 18 10 59 0 37 -4 66 -10 66 -6 0 -10 -26 -10 -59z" style="fill: rgb(255, 255, 255);"/>
    <path d="M3514 1575 c-19 -47 -18 -58 12 -89 36 -36 63 -36 35 0 -22 28 -28 78 -11 89 16 10 12 35 -6 35 -8 0 -22 -16 -30 -35z" style="fill: rgb(255, 255, 255);"/>
    <path d="M3592 1529 c3 -43 18 -47 18 -5 0 20 -5 36 -10 36 -6 0 -9 -14 -8 -31z" style="fill: rgb(255, 255, 255);"/>
    <path d="M1728 5933 c-18 -15 -35 -28 -37 -30 -2 -1 26 -41 63 -89 36 -48 66 -96 66 -109 0 -29 -30 -55 -63 -55 -22 0 -39 16 -94 89 -71 96 -69 95 -123 52 l-24 -19 69 -92 c39 -51 82 -98 97 -106 59 -30 138 -6 196 61 27 30 32 44 32 84 0 45 -6 57 -71 145 -39 53 -72 96 -74 96 -2 0 -18 -12 -37 -27z" style="fill: rgb(255, 255, 255);"/>
    <path d="M5307 5830 c-75 -49 -137 -93 -137 -97 0 -4 16 -18 36 -31 33 -21 37 -22 59 -8 22 14 26 13 70 -20 40 -31 45 -39 40 -63 -5 -24 0 -32 30 -55 20 -16 38 -26 40 -24 6 6 97 329 93 332 -1 1 -19 15 -39 29 -20 15 -40 27 -45 27 -5 0 -71 -40 -147 -90z m122 -62 c-11 -29 -22 -55 -24 -56 -6 -6 -55 32 -52 40 3 9 80 67 89 68 4 0 -2 -24 -13 -52z" style="fill: rgb(255, 255, 255);"/>
    <path d="M5582 5622 l-112 -120 67 -65 c38 -36 81 -75 96 -88 l29 -22 25 28 26 27 -59 53 -59 53 25 28 c13 16 51 57 85 92 l60 62 -36 36 -36 35 -111 -119z" style="fill: rgb(255, 255, 255);"/>
    <path d="M1334 5598 c-41 -39 -74 -76 -74 -82 0 -6 49 -61 110 -121 l110 -109 35 34 35 34 -42 43 -42 43 31 32 c63 67 68 110 22 163 -26 29 -38 35 -71 35 -36 0 -47 -7 -114 -72z m124 -49 c2 -16 -5 -32 -18 -44 -20 -19 -21 -18 -47 8 -26 26 -27 27 -8 47 27 30 69 23 73 -11z" style="fill: rgb(255, 255, 255);"/>
    <path d="M6035 5193 c-68 -36 -115 -100 -115 -158 0 -37 33 -97 75 -133 28 -26 45 -32 80 -32 24 0 46 4 49 8 3 5 0 25 -6 45 -10 33 -15 36 -52 39 -32 2 -44 9 -55 30 -13 23 -13 30 -1 53 18 33 92 78 121 73 12 -2 31 -15 42 -30 17 -23 18 -32 9 -52 -9 -20 -7 -27 18 -51 16 -15 33 -25 38 -21 19 11 34 66 28 100 -8 44 -57 111 -95 131 -38 19 -97 19 -136 -2z" style="fill: rgb(255, 255, 255);"/>
    <path d="M963 5162 c-9 -15 -21 -32 -25 -38 -6 -8 18 -28 69 -60 87 -55 90 -52 -57 -56 -84 -3 -84 -3 -107 -37 -13 -19 -22 -39 -21 -43 2 -5 63 -47 135 -93 l131 -84 26 39 25 39 -74 47 c-41 26 -74 49 -72 50 1 1 43 4 92 5 50 1 98 5 107 7 16 4 58 59 58 75 0 6 -41 33 -192 128 l-78 49 -17 -28z" style="fill: rgb(255, 255, 255);"/>
    <path d="M6237 4875 c-75 -28 -126 -88 -127 -151 0 -45 49 -135 89 -161 82 -55 233 6 257 103 18 70 -34 175 -99 205 -49 22 -69 22 -120 4z m123 -105 c43 -43 9 -108 -71 -132 -102 -30 -134 95 -36 137 45 20 84 18 107 -5z" style="fill: rgb(255, 255, 255);"/>
    <path d="M755 4825 c-8 -21 -15 -41 -15 -46 0 -5 32 -30 72 -56 78 -52 74 -61 -18 -44 -91 17 -97 16 -116 -30 -20 -47 -25 -38 75 -116 26 -21 44 -39 38 -41 -5 -2 -39 4 -76 13 -36 8 -72 15 -79 15 -13 0 -50 -69 -42 -78 6 -5 281 -61 307 -62 14 0 49 57 49 80 0 5 -35 37 -77 72 -47 38 -71 64 -62 66 8 1 54 -4 103 -11 l88 -15 19 46 c11 25 18 46 17 47 -2 2 -57 42 -123 90 -66 48 -125 92 -132 97 -9 7 -16 -1 -28 -27z" style="fill: rgb(255, 255, 255);"/>
    <path d="M6388 4492 c-75 -26 -139 -50 -143 -54 -11 -10 17 -88 31 -88 8 0 36 8 63 19 79 30 83 4 12 -76 l-49 -55 16 -47 c9 -25 18 -48 19 -50 6 -9 71 61 89 95 18 32 34 44 34 25 0 -15 58 -34 85 -27 38 10 65 42 65 79 0 41 -61 227 -75 226 -5 0 -72 -22 -147 -47z m140 -96 c16 -42 7 -66 -25 -66 -18 0 -28 9 -39 36 -17 41 -17 39 16 53 36 14 35 14 48 -23z" style="fill: rgb(255, 255, 255);"/>
    <path d="M594 4332 c-70 -44 -99 -174 -56 -244 43 -69 173 -100 240 -58 70 44 100 183 53 248 -31 44 -73 64 -146 69 -48 3 -66 0 -91 -15z m141 -96 c55 -23 60 -89 9 -123 -21 -13 -31 -14 -68 -3 -79 22 -106 67 -70 118 18 26 76 30 129 8z" style="fill: rgb(255, 255, 255);"/>
    <path d="M6495 4137 c-77 -17 -142 -32 -144 -33 -2 -2 0 -24 4 -50 6 -44 8 -46 33 -41 15 3 43 8 63 12 l36 7 7 -46 c10 -66 47 -106 97 -106 45 0 94 21 103 45 17 45 -18 239 -44 241 -8 1 -78 -12 -155 -29z m133 -111 c8 -68 -60 -76 -74 -9 -6 29 -4 32 22 36 43 6 49 3 52 -27z" style="fill: rgb(255, 255, 255);"/>
    <path d="M452 3858 c-11 -84 -20 -153 -19 -154 1 -1 18 -4 38 -7 l37 -5 6 49 c8 57 1 56 151 34 55 -7 100 -13 101 -12 1 1 5 23 9 48 l7 46 -34 6 c-18 3 -73 11 -122 18 l-88 13 5 53 c5 51 4 53 -18 53 -13 0 -30 2 -37 5 -12 5 -19 -25 -36 -147z" style="fill: rgb(255, 255, 255);"/>
    <path d="M6510 3799 c-89 -36 -124 -153 -74 -251 54 -106 242 -97 300 14 37 71 1 197 -66 230 -38 20 -120 23 -160 7z m150 -109 c37 -37 21 -91 -31 -109 -81 -28 -139 -4 -139 59 0 51 26 70 97 70 40 0 58 -5 73 -20z" style="fill: rgb(255, 255, 255);"/>
    <path d="M420 3495 l0 -135 165 0 165 0 0 135 0 135 -35 0 -35 0 0 -85 0 -85 -35 0 -35 0 0 80 0 80 -30 0 -29 0 -3 -77 c-3 -77 -3 -78 -30 -81 l-28 -3 0 85 0 86 -35 0 -35 0 0 -135z" style="fill: rgb(255, 255, 255);"/>
    <path d="M6430 3360 l0 -48 66 -7 c51 -6 64 -11 60 -22 -3 -8 -6 -17 -6 -19 0 -3 -29 -18 -64 -34 l-64 -28 -7 -59 c-3 -32 -10 -77 -14 -101 -8 -39 -7 -44 16 -59 22 -15 24 -21 18 -61 -9 -63 -14 -70 -43 -74 -22 -3 -28 -10 -35 -46 -5 -24 -6 -46 -3 -49 3 -4 78 7 167 22 173 31 172 30 182 100 l7 41 -140 83 c-77 46 -140 87 -140 91 0 4 19 15 43 25 23 10 53 28 66 39 19 17 25 18 29 7 21 -59 103 -81 146 -38 25 25 34 72 38 197 l2 65 -60 6 c-32 4 -105 9 -161 12 l-103 6 0 -49z m258 -86 c5 -34 -16 -74 -38 -74 -25 0 -43 41 -34 76 5 21 11 24 38 21 22 -2 32 -9 34 -23z m-123 -366 c25 -12 45 -25 45 -29 0 -6 -110 -22 -115 -17 -6 7 8 68 16 68 5 0 29 -10 54 -22z" style="fill: rgb(255, 255, 255);"/>
    <path d="M589 3283 c-25 -4 -27 -7 -22 -46 11 -105 12 -107 43 -107 28 0 30 3 30 35 0 27 4 35 18 35 22 0 42 -39 42 -79 0 -42 -32 -64 -99 -69 -51 -4 -61 -1 -80 19 -25 27 -27 65 -5 90 13 14 13 24 4 58 -12 47 -27 51 -59 17 -50 -53 -35 -192 25 -245 79 -70 226 -45 269 46 23 48 15 138 -17 201 -24 46 -25 47 -74 48 -27 1 -61 0 -75 -3z" style="fill: rgb(255, 255, 255);"/>
    <path d="M727 2910 c-25 -23 -49 -50 -52 -61 -6 -19 -8 -19 -37 6 -40 34 -82 33 -119 -4 -16 -16 -29 -37 -29 -47 0 -10 12 -66 26 -126 21 -89 29 -108 42 -104 10 2 76 19 149 37 72 17 136 35 142 38 12 8 -9 91 -24 91 -5 0 -33 -6 -62 -14 -83 -22 -86 0 -8 75 l54 54 -11 48 c-6 26 -14 47 -18 47 -4 0 -28 -18 -53 -40z m-90 -170 c12 -39 10 -45 -29 -54 -25 -6 -28 -3 -37 31 -12 43 0 66 33 61 14 -2 25 -15 33 -38z" style="fill: rgb(255, 255, 255);"/>
    <path d="M6585 2687 c-2 -7 -9 -29 -15 -49 -6 -21 -13 -38 -15 -38 -1 0 -54 16 -116 35 -63 19 -117 31 -121 27 -10 -12 -27 -82 -20 -86 4 -2 47 -16 95 -30 148 -45 139 -38 122 -87 -20 -55 -20 -54 21 -67 26 -8 36 -8 39 1 33 101 86 279 83 281 -2 2 -18 8 -36 14 -25 9 -34 8 -37 -1z" style="fill: rgb(255, 255, 255);"/>
    <path d="M702 2528 c-88 -43 -114 -128 -67 -224 33 -67 71 -94 136 -94 85 0 159 50 179 121 18 59 -14 145 -70 193 -40 33 -114 35 -178 4z m153 -93 c42 -41 29 -82 -35 -115 -50 -26 -78 -25 -107 2 -45 42 -26 90 47 122 49 21 67 20 95 -9z" style="fill: rgb(255, 255, 255);"/>
    <path d="M6220 2393 c-8 -21 -16 -41 -18 -44 -1 -4 5 -9 15 -12 10 -2 78 -30 151 -60 l133 -56 19 42 c11 23 16 45 12 49 -10 10 -273 118 -287 118 -6 0 -17 -17 -25 -37z" style="fill: rgb(255, 255, 255);"/>
    <path d="M980 2230 l-25 -19 38 -69 c20 -38 37 -74 37 -79 0 -8 -41 -33 -53 -33 -2 0 -19 29 -38 65 -36 68 -44 73 -73 52 -17 -13 -16 -17 15 -78 19 -35 35 -67 37 -70 1 -3 -9 -11 -22 -17 -24 -11 -27 -8 -66 63 l-41 75 -30 -16 c-16 -8 -28 -18 -26 -22 2 -4 32 -58 66 -119 l63 -113 71 40 c40 22 102 57 140 77 37 21 67 41 67 46 0 11 -124 237 -130 237 -3 0 -16 -9 -30 -20z" style="fill: rgb(255, 255, 255);"/>
    <path d="M6195 2233 c-60 -16 -125 -111 -125 -182 0 -113 166 -202 260 -139 40 26 90 116 90 160 0 96 -128 188 -225 161z m94 -112 c55 -30 64 -96 16 -127 -32 -21 -71 -12 -118 27 -38 31 -45 55 -26 90 20 38 68 42 128 10z" style="fill: rgb(255, 255, 255);"/>
    <path d="M5965 1914 c-15 -19 -25 -36 -24 -38 73 -51 139 -101 139 -103 0 -2 -48 -3 -107 -2 l-106 2 -28 -34 c-15 -19 -25 -37 -23 -41 2 -3 61 -48 130 -98 l127 -92 23 28 c13 16 23 34 24 41 0 7 -30 34 -67 60 l-68 48 112 3 c111 3 112 3 133 31 11 16 20 33 20 38 0 8 -205 162 -246 186 -7 4 -24 -9 -39 -29z" style="fill: rgb(255, 255, 255);"/>
    <path d="M1105 1907 c-17 -12 -41 -30 -54 -39 l-23 -17 42 -60 c24 -34 45 -61 47 -61 2 0 15 7 28 16 l25 16 -20 28 c-18 25 -18 29 -4 40 12 11 20 10 42 -7 57 -42 54 -107 -5 -148 -50 -34 -95 -33 -123 2 -13 17 -19 35 -16 48 4 16 -4 31 -28 54 -33 32 -34 33 -45 13 -28 -53 0 -133 68 -195 37 -33 47 -37 94 -37 96 0 180 77 180 164 0 69 -55 151 -124 186 -47 24 -47 24 -84 -3z" style="fill: rgb(255, 255, 255);"/>
    <path d="M1453 1419 c-64 -19 -99 -102 -69 -165 36 -77 130 -95 188 -36 90 89 2 237 -119 201z" style="fill: rgb(255, 255, 255);"/>
    <path d="M5539 1327 c-45 -30 -61 -63 -56 -115 6 -52 36 -88 87 -103 70 -21 150 41 150 116 0 61 -63 125 -123 125 -13 0 -39 -10 -58 -23z" style="fill: rgb(255, 255, 255);"/>
    <path d="M2057 918 c-26 -89 -44 -165 -39 -168 4 -4 23 -16 43 -28 l36 -22 73 75 c40 42 75 73 78 71 2 -3 -5 -44 -17 -90 -11 -47 -21 -92 -21 -100 0 -14 58 -56 77 -56 8 0 119 121 221 242 12 15 10 19 -28 38 -23 12 -45 18 -49 13 -65 -78 -114 -133 -117 -131 -1 2 6 40 18 85 11 46 18 88 15 96 -2 7 -21 21 -42 32 l-37 20 -63 -67 c-35 -38 -65 -68 -68 -68 -4 0 30 117 48 162 5 13 -3 22 -34 37 -22 12 -42 21 -44 21 -2 0 -24 -73 -50 -162z" style="fill: rgb(255, 255, 255);"/>
    <path d="M4927 999 c-114 -68 -118 -71 -104 -92 8 -12 45 -75 82 -140 37 -65 72 -120 76 -123 6 -3 214 112 238 132 5 4 -20 64 -26 64 -3 0 -38 -18 -78 -40 -40 -22 -77 -40 -82 -40 -5 0 -15 12 -22 27 -14 30 -18 25 66 74 29 17 55 33 57 37 2 4 -4 18 -13 31 l-18 24 -69 -41 c-62 -37 -70 -39 -81 -25 -22 29 -15 38 57 79 38 21 70 42 70 46 0 12 -23 58 -29 58 -3 -1 -59 -33 -124 -71z" style="fill: rgb(255, 255, 255);"/>
    <path d="M4473 797 c-50 -18 -95 -35 -98 -39 -5 -5 90 -302 101 -316 4 -5 77 18 87 27 4 4 -2 33 -13 65 -32 94 -6 102 75 25 l54 -50 55 17 56 18 -41 42 c-23 24 -55 48 -70 54 l-28 12 20 31 c26 44 24 80 -7 116 -34 40 -69 40 -191 -2z m112 -77 c0 -19 -9 -29 -35 -42 -38 -19 -45 -16 -55 24 -6 23 -3 30 16 38 13 5 35 8 49 7 19 -2 25 -8 25 -27z" style="fill: rgb(255, 255, 255);"/>
    <path d="M2655 799 c-24 -66 -91 -305 -86 -310 9 -10 261 -82 266 -77 3 2 8 18 11 35 l6 31 -86 26 c-47 15 -86 28 -86 31 0 2 4 15 10 29 12 31 28 32 105 6 32 -11 59 -20 61 -20 6 0 22 60 16 64 -4 2 -40 14 -80 26 -57 16 -72 25 -68 36 3 9 6 20 6 25 0 14 26 11 101 -12 39 -12 72 -19 74 -17 3 2 7 18 11 34 l6 30 -114 33 c-62 19 -121 36 -130 38 -10 3 -20 -1 -23 -8z" style="fill: rgb(255, 255, 255);"/>
    <path d="M4015 691 l-39 -6 -37 -175 c-21 -96 -37 -176 -35 -177 1 -2 23 0 49 3 40 6 47 10 52 35 8 35 7 35 76 43 53 7 56 6 67 -19 11 -25 15 -26 60 -19 26 3 49 8 50 9 2 2 -35 73 -83 159 -61 109 -92 156 -103 155 -10 -1 -35 -5 -57 -8z m63 -153 c22 -51 18 -58 -34 -58 -20 0 -24 4 -20 23 3 12 8 39 11 61 7 44 14 40 43 -26z" style="fill: rgb(255, 255, 255);"/>
    <path d="M3485 655 c-50 -18 -81 -53 -96 -108 -22 -82 11 -181 71 -212 17 -9 56 -15 93 -15 75 0 123 25 144 77 l13 32 -41 11 c-38 11 -41 10 -69 -19 -32 -36 -58 -39 -91 -12 -21 16 -24 28 -24 81 0 53 3 65 24 81 31 26 67 24 94 -4 18 -19 28 -22 55 -16 45 9 49 16 32 46 -35 61 -127 87 -205 58z" style="fill: rgb(255, 255, 255);"/>
  </g>
</svg>